<svg width="23" height="23" viewBox="0 0 23 23" fill="none" xmlns="http://www.w3.org/2000/svg">
<path d="M6.67 0.79248H16.33C20.01 0.79248 23 3.65248 23 7.17248V16.4125C23 18.1046 22.2973 19.7273 21.0464 20.9238C19.7955 22.1203 18.099 22.7925 16.33 22.7925H6.67C2.99 22.7925 0 19.9325 0 16.4125V7.17248C0 5.4804 0.70273 3.85762 1.9536 2.66114C3.20447 1.46466 4.90101 0.79248 6.67 0.79248ZM6.44 2.99248C5.342 2.99248 4.28898 3.40969 3.51258 4.15234C2.73618 4.89498 2.3 5.90222 2.3 6.95248V16.6325C2.3 18.8215 4.1515 20.5925 6.44 20.5925H16.56C17.658 20.5925 18.711 20.1753 19.4874 19.4326C20.2638 18.69 20.7 17.6827 20.7 16.6325V6.95248C20.7 4.76348 18.8485 2.99248 16.56 2.99248H6.44ZM17.5375 4.64248C17.9187 4.64248 18.2844 4.78735 18.554 5.04521C18.8236 5.30307 18.975 5.65281 18.975 6.01748C18.975 6.38215 18.8236 6.73189 18.554 6.98975C18.2844 7.24761 17.9187 7.39248 17.5375 7.39248C17.1562 7.39248 16.7906 7.24761 16.521 6.98975C16.2514 6.73189 16.1 6.38215 16.1 6.01748C16.1 5.65281 16.2514 5.30307 16.521 5.04521C16.7906 4.78735 17.1562 4.64248 17.5375 4.64248ZM11.5 6.29248C13.025 6.29248 14.4875 6.87194 15.5659 7.90339C16.6442 8.93484 17.25 10.3338 17.25 11.7925C17.25 13.2512 16.6442 14.6501 15.5659 15.6816C14.4875 16.713 13.025 17.2925 11.5 17.2925C9.97501 17.2925 8.51247 16.713 7.43414 15.6816C6.3558 14.6501 5.75 13.2512 5.75 11.7925C5.75 10.3338 6.3558 8.93484 7.43414 7.90339C8.51247 6.87194 9.97501 6.29248 11.5 6.29248ZM11.5 8.49248C10.585 8.49248 9.70748 8.84016 9.06048 9.45903C8.41348 10.0779 8.05 10.9173 8.05 11.7925C8.05 12.6677 8.41348 13.5071 9.06048 14.1259C9.70748 14.7448 10.585 15.0925 11.5 15.0925C12.415 15.0925 13.2925 14.7448 13.9395 14.1259C14.5865 13.5071 14.95 12.6677 14.95 11.7925C14.95 10.9173 14.5865 10.0779 13.9395 9.45903C13.2925 8.84016 12.415 8.49248 11.5 8.49248Z" fill="#0D347A"/>
</svg>
