<svg width="22" height="23" viewBox="0 0 22 23" fill="none" xmlns="http://www.w3.org/2000/svg">
<path d="M20.3732 0.792634H1.62676C1.41603 0.789725 1.20679 0.828106 1.01099 0.905585C0.815184 0.983064 0.636653 1.09812 0.485591 1.24419C0.334528 1.39026 0.213893 1.56448 0.130575 1.75689C0.0472562 1.94931 0.00288655 2.15615 0 2.36561V21.2193C0.00288655 21.4288 0.0472562 21.6357 0.130575 21.8281C0.213893 22.0205 0.334528 22.1947 0.485591 22.3408C0.636653 22.4868 0.815184 22.6019 1.01099 22.6794C1.20679 22.7569 1.41603 22.7952 1.62676 22.7923H20.3732C20.584 22.7952 20.7932 22.7569 20.989 22.6794C21.1848 22.6019 21.3633 22.4868 21.5144 22.3408C21.6655 22.1947 21.7861 22.0205 21.8694 21.8281C21.9527 21.6357 21.9971 21.4288 22 21.2193V2.36561C21.9971 2.15615 21.9527 1.94931 21.8694 1.75689C21.7861 1.56448 21.6655 1.39026 21.5144 1.24419C21.3633 1.09812 21.1848 0.983064 20.989 0.905585C20.7932 0.828106 20.584 0.789725 20.3732 0.792634ZM6.67304 19.2064H3.35312V9.30651H6.67304V19.2064ZM5.01308 7.92053C4.55522 7.92053 4.11611 7.73974 3.79236 7.41794C3.4686 7.09613 3.28672 6.65966 3.28672 6.20456C3.28672 5.74945 3.4686 5.31299 3.79236 4.99118C4.11611 4.66937 4.55522 4.48858 5.01308 4.48858C5.2562 4.46118 5.50241 4.48512 5.73558 4.55885C5.96874 4.63258 6.18361 4.75444 6.36612 4.91643C6.54862 5.07843 6.69465 5.27692 6.79463 5.4989C6.89461 5.72088 6.94629 5.96135 6.94629 6.20456C6.94629 6.44777 6.89461 6.68824 6.79463 6.91022C6.69465 7.1322 6.54862 7.33069 6.36612 7.49268C6.18361 7.65468 5.96874 7.77653 5.73558 7.85026C5.50241 7.92399 5.2562 7.94794 5.01308 7.92053ZM18.6469 19.2064H15.327V13.8934C15.327 12.5625 14.8511 11.6935 13.6449 11.6935C13.2716 11.6962 12.9081 11.8126 12.6033 12.027C12.2986 12.2413 12.0673 12.5434 11.9406 12.8925C11.854 13.151 11.8165 13.4233 11.83 13.6955V19.1954H8.51006V9.29551H11.83V10.6925C12.1316 10.1723 12.5702 9.74378 13.0987 9.45304C13.6271 9.16229 14.2254 9.02036 14.829 9.04252C17.0423 9.04252 18.6469 10.4615 18.6469 13.5085V19.2064Z" fill="#0D347A"/>
</svg>
