<svg width="76" height="164" viewBox="0 0 76 164" fill="none" xmlns="http://www.w3.org/2000/svg">
<g clip-path="url(#clip0_1256_2593)">
<path d="M58.0411 39.5386C61.0606 40.5988 63.1993 42.6913 64.9001 45.3488C65.2789 45.9416 65.6442 46.5465 65.9788 47.1671C66.1188 47.4268 66.262 47.5234 66.5451 47.5179C67.5091 47.4979 68.4743 47.5101 69.4383 47.5112C70.3782 47.5123 70.9339 48.0895 70.9339 49.0753C70.936 52.4421 70.9423 55.809 70.9265 59.1747C70.9244 59.6343 70.9886 59.8041 71.4959 59.8552C73.3598 60.0439 75.0111 60.9797 75.5795 62.8236C75.8752 63.7827 75.8689 64.7406 75.5553 65.6875C75.4805 65.9118 75.4627 66.0783 75.5784 66.2947C76.1731 67.4115 76.1005 68.5482 75.5974 69.6694C75.4132 70.079 75.2901 70.4431 75.3322 70.9382C75.5058 72.9663 74.5681 74.456 73.0988 75.6382C72.5978 76.0412 72.0558 76.4075 71.437 76.523C70.9644 76.6107 70.9244 76.8482 70.9265 77.2645C70.9402 80.6491 70.9339 84.0348 70.9339 87.4194C70.9339 88.6572 70.5266 89.1445 69.3436 89.1634C66.6261 89.2067 63.9076 89.2078 61.189 89.2255C60.908 89.2278 60.627 89.24 60.3471 89.2289C60.1187 89.2189 60.0282 89.2322 60.0776 89.5475C60.2944 90.924 60.4755 92.3071 60.6554 93.6902C60.828 95.0201 60.9859 96.3522 61.1459 97.6843C61.3122 99.0719 61.4837 100.458 61.6363 101.847C61.7995 103.329 61.9437 104.813 62.0942 106.297C62.2615 107.947 62.432 109.595 62.5909 111.246C62.7141 112.529 62.8267 113.814 62.9361 115.098C63.0719 116.697 63.2014 118.295 63.3319 119.895C63.4466 121.291 63.5497 122.689 63.676 124.083C63.8276 125.753 64.0044 127.42 64.1581 129.088C64.2865 130.483 64.3938 131.879 64.5159 133.274C64.6412 134.706 64.7706 136.138 64.9053 137.569C65.0516 139.128 65.2063 140.684 65.3568 142.242C65.3673 142.351 65.3474 142.47 65.3768 142.572C65.7694 143.918 64.9085 144.897 64.0076 145.328C63.5992 145.522 63.1814 145.732 62.7478 145.816C62.3625 145.89 62.4615 146.062 62.5436 146.29C63.0203 147.615 63.8665 148.642 64.8674 149.561C66.3735 150.945 68.0996 151.998 69.7088 153.226C71.2412 154.395 72.44 155.841 72.8767 157.864C73.042 158.628 73.1167 159.399 72.9999 160.165C72.842 161.194 72.2242 161.922 71.4148 162.458C70.1129 163.321 68.669 163.789 67.1492 163.925C61.8868 164.394 57.2644 162.586 53.0377 159.423C52.5293 159.042 52.0325 158.784 51.3726 158.669C49.8276 158.402 48.491 157.575 47.4774 156.297C46.9302 155.607 46.8249 154.698 46.7428 153.817C46.5439 151.679 47.0701 149.67 47.7227 147.682C47.8584 147.27 48.1068 146.775 47.9942 146.431C47.8816 146.086 47.3017 146.23 46.9333 146.132C46.3303 145.973 45.7303 145.8 45.1283 145.641C43.8485 145.299 43.356 144.423 43.2539 143.095C43.115 141.298 42.8529 139.513 42.6634 137.72C42.4677 135.872 42.2993 134.02 42.1098 132.171C41.9509 130.615 41.772 129.059 41.6162 127.502C41.4563 125.909 41.3205 124.313 41.1637 122.719C41.009 121.143 40.8385 119.569 40.6816 117.994C40.5575 116.749 40.4448 115.501 40.3228 114.255C40.1617 112.606 39.9965 110.957 39.8344 109.308C39.6797 107.732 39.5376 106.154 39.3734 104.579C39.1882 102.804 38.9882 101.031 38.784 99.2595C38.6988 98.5191 38.5883 97.782 38.4872 97.0316C38.2357 97.0937 38.3262 97.2747 38.3178 97.3946C38.1789 99.2339 38.042 101.073 37.9158 102.913C37.7958 104.662 37.6989 106.413 37.5747 108.161C37.4558 109.835 37.3095 111.507 37.1843 113.181C37.0643 114.782 36.958 116.383 36.8412 117.985C36.7128 119.733 36.577 121.479 36.4475 123.226C36.3307 124.809 36.2234 126.392 36.1034 127.974C35.976 129.665 35.8371 131.356 35.7056 133.048C35.5908 134.52 35.4919 135.992 35.3646 137.463C35.2246 139.078 35.0614 140.691 34.9036 142.304C34.8583 142.761 34.7678 143.215 34.7478 143.674C34.712 144.509 34.2521 144.992 33.5732 145.263C33.0744 145.462 32.5502 145.633 32.024 145.702C31.6241 145.755 31.6978 145.88 31.7767 146.177C32.0577 147.237 32.5766 148.198 32.8913 149.244C33.5048 151.285 33.6943 153.342 33.1554 155.431C32.847 156.627 32.1998 157.535 31.0736 158C29.9138 158.48 28.7719 159.029 27.491 159.051C27.1027 159.058 26.7774 158.979 26.6333 158.513C26.5385 158.207 26.3491 158.456 26.2407 158.52C25.1166 159.171 23.9716 159.777 22.777 160.269C20.0532 161.391 17.2515 162.196 14.333 162.501C11.7576 162.771 9.21065 162.707 6.75418 161.709C5.98693 161.397 5.26283 161.006 4.66503 160.387C3.76832 159.457 3.76517 158.302 3.98303 157.14C4.36297 155.111 5.68172 153.818 7.25937 152.772C8.81913 151.736 10.561 151.08 12.1849 150.177C13.5205 149.435 14.8887 148.744 15.9907 147.608C16.5306 147.05 16.8116 146.341 17.1368 145.653C17.2484 145.415 17.1494 145.342 16.9316 145.281C16.1454 145.059 15.3729 144.797 14.6488 144.392C13.9257 143.988 13.5605 143.436 13.5752 142.5C13.6331 139.007 13.8131 135.52 13.9952 132.032C14.1183 129.671 14.2088 127.308 14.3362 124.947C14.452 122.809 14.6014 120.672 14.7309 118.534C14.814 117.152 14.8708 115.767 14.9666 114.385C15.0782 112.785 15.2161 111.186 15.3487 109.588C15.4613 108.228 15.5665 106.868 15.7023 105.511C15.8833 103.699 16.0833 101.888 16.2885 100.079C16.4685 98.4891 16.6537 96.9006 16.86 95.3143C17.0747 93.657 17.2863 91.9996 17.5567 90.3512C17.7557 89.1334 17.7957 89.1412 16.6074 89.1401C13.2753 89.1378 9.94317 89.1057 6.6121 89.1489C5.41755 89.1645 5.01234 88.4507 5.02182 87.4217C5.05234 83.9816 5.03234 80.5403 5.04708 77.1002C5.04813 76.7672 4.98603 76.6473 4.65135 76.5529C2.40327 75.9135 0.485666 73.5247 0.581441 71.3434C0.61512 70.5652 0.538289 69.9047 0.25307 69.1932C-0.135292 68.2241 -0.074249 67.2217 0.443567 66.2848C0.522502 66.1416 0.555129 66.0172 0.489876 65.8274C-0.47945 62.9901 1.12557 60.7444 3.44311 60.0961C3.84515 59.984 4.25772 59.8641 4.66924 59.8508C5.03339 59.8397 5.04287 59.6743 5.04181 59.3801C5.03445 55.9955 5.06076 52.6098 5.02287 49.2251C5.01129 48.1917 5.44175 47.4657 6.66262 47.4923C9.1696 47.5467 11.6776 47.4957 14.1857 47.5201C14.6088 47.5245 14.8361 47.3813 15.0456 47.0039C16.5285 44.3208 18.4177 42.0485 21.0141 40.4944C21.7993 40.0249 22.636 39.693 23.5264 39.3633C22.5528 38.5474 21.8866 37.5239 21.3562 36.3927C21.2888 36.2484 21.1846 36.2095 21.0373 36.1651C18.023 35.2638 16.1906 33.1357 15.5423 29.9554C14.9645 27.1169 15.6939 24.536 17.3126 22.2171C18.2819 20.8295 19.5122 19.6839 20.5489 18.3596C21.8193 16.7377 22.5802 14.8828 22.8549 12.7992C23.2811 9.56667 24.402 6.66938 26.6669 4.37152C28.5709 2.44 30.9052 1.33769 33.4385 0.67609C35.0341 0.260922 36.6486 -0.00438541 38.2999 5.48855e-05C40.1144 0.00560525 41.8773 0.321976 43.5349 1.08238C44.2348 1.40319 44.8957 1.40319 45.6009 1.31771C50.4002 0.734923 54.8237 2.87514 57.1518 7.79721C58.0211 9.6366 58.441 11.6081 58.8389 13.5962C59.2083 15.4434 59.6598 17.2639 60.7723 18.8114C61.4216 19.715 62.2226 20.4654 62.9561 21.2824C64.4349 22.9297 65.5968 24.7658 66.1472 27.0015C67.1713 31.1631 65.0948 35.478 61.4111 36.769C61.1322 36.8667 59.3104 38.1644 59.1041 38.3953C58.7705 38.7671 58.4263 39.1279 58.0422 39.5398L58.0411 39.5386Z" fill="#010101"/>
<path d="M11.3961 68.8656C12.8138 67.5712 12.496 65.2801 11.133 64.4819C11.0078 64.4086 10.9541 64.3387 11.0141 64.1356C11.6487 62.0176 10.3731 60.7099 8.71969 60.1715C8.60392 60.1338 8.48604 60.0993 8.36816 60.076C8.03453 60.0116 7.56513 60.0938 7.40726 59.8252C7.25044 59.5565 7.36937 59.1081 7.36937 58.7384C7.36937 56.001 7.37884 53.2635 7.362 50.5261C7.3599 50.132 7.45778 50.0476 7.82193 50.0476C27.8999 50.0576 47.9779 50.0576 68.0559 50.0454C68.4548 50.0454 68.5369 50.1486 68.5348 50.5572C68.5158 53.5166 68.519 56.4761 68.5306 59.4355C68.5316 59.7785 68.4906 59.914 68.1117 59.9783C67.2045 60.1349 66.3341 60.4313 65.6342 61.1306C64.8227 61.9432 64.6543 62.9189 64.9595 64.0024C65.0364 64.2765 65.0648 64.4253 64.7996 64.5741C63.545 65.2778 63.4071 67.5069 64.4038 68.6336C64.5101 68.7535 64.6691 68.7879 64.4828 69.0432C63.8134 69.9657 63.9418 71.2689 64.6985 72.1769C65.45 73.0794 66.4246 73.5024 67.5076 73.6933C68.5264 73.8731 68.5285 73.8576 68.5285 74.9366C68.5285 78.6908 68.5221 82.4462 68.539 86.2005C68.5411 86.5979 68.4758 86.7145 68.0696 86.7133C47.9916 86.6956 27.9136 86.69 7.83561 86.6989C7.4041 86.6989 7.37042 86.5435 7.37147 86.1672C7.38305 82.2642 7.39147 78.3612 7.36305 74.4592C7.35884 73.9186 7.55039 73.8343 7.9798 73.8032C9.25645 73.7099 10.4363 73.3558 11.3193 72.278C12.1055 71.3177 12.357 69.9546 11.394 68.8634L11.3961 68.8656Z" fill="#FEF7EE"/>
<path d="M38.6215 8.07912C38.9636 8.97051 39.3425 9.80862 39.8666 10.5624C41.339 12.6804 43.3713 13.8526 45.7531 14.4243C46.1593 14.522 46.5771 14.6419 46.9855 14.6297C47.4602 14.6141 47.4539 14.8595 47.4844 15.2324C47.6233 16.9764 47.9317 18.6748 48.8558 20.1778C48.9694 20.3621 49.1147 20.5242 49.2483 20.694C49.5388 21.0659 49.843 21.0792 50.1871 20.7595C50.5786 20.3965 50.9954 20.0624 51.5322 19.9813C52.7573 19.7959 53.6413 20.3543 54.0118 21.6209C54.4686 23.1817 54.2507 24.6414 53.1877 25.8725C52.3847 26.8027 51.1765 27.0725 50.0861 26.5596C49.5009 26.2843 49.1494 26.4608 48.9568 27.1291C48.3411 29.2626 47.356 31.1642 45.8594 32.7616C45.29 33.3699 45.3384 33.7551 46.0225 34.147C46.2246 34.2635 46.1898 34.3812 46.1909 34.5311C46.1951 35.1571 46.2456 35.7754 46.4214 36.3793C46.634 37.1098 47.0213 37.7003 47.6423 38.0988C47.9022 38.2665 47.9327 38.4263 47.817 38.7282C47.2739 40.1403 46.3119 41.1515 45.0763 41.8653C41.8737 43.7158 38.5415 44.1343 35.1273 42.6013C33.6128 41.9219 32.5067 40.7508 32.0562 38.9991C31.9794 38.7005 32.0762 38.5839 32.2688 38.3719C33.0129 37.5527 33.7665 37.6493 34.7432 37.9468C37.5364 38.7971 40.2465 38.5295 42.7114 36.739C42.9682 36.5525 43.1913 36.3105 43.4134 36.0774C43.6229 35.8587 43.6513 35.6034 43.4955 35.3248C43.3113 34.9973 43.0461 35.0728 42.8146 35.1982C41.8842 35.7055 40.9054 36.0285 39.8708 36.2017C36.7376 36.7268 33.838 36.0763 31.2416 34.1725C28.5946 32.2321 27.1359 29.4691 26.5286 26.1622C26.0624 23.6224 26.4023 21.1636 27.0843 18.7181C27.539 17.0896 27.7937 15.42 27.6053 13.7139C27.5653 13.3542 27.76 13.4197 27.941 13.4286C29.4187 13.5007 30.8574 13.2743 32.2667 12.8125C34.8547 11.9633 36.9291 10.3403 38.6236 8.0769L38.6215 8.07912Z" fill="#FBE1C9"/>
<path d="M17.1836 47.297C19.4443 43.2963 22.7606 40.8208 27.0284 39.7307C28.0272 39.4754 29.0376 39.2723 30.0395 39.0325C30.2206 38.9892 30.3069 38.9615 30.3437 39.2179C30.7573 42.1651 32.4971 43.9457 35.0767 44.756C38.8834 45.9505 42.6197 45.673 46.1087 43.5338C47.78 42.5092 49.0903 41.0895 49.6565 39.058C49.7197 38.8305 49.827 38.8038 49.9954 38.8416C53.156 39.5409 56.3271 40.2047 59.1235 42.0608C61.1243 43.3895 62.5977 45.2411 63.8733 47.2981C63.7091 47.5556 63.4565 47.4457 63.2439 47.4457C58.0563 47.4524 52.8676 47.4502 47.68 47.4502C37.7247 47.4502 27.7693 47.4502 17.814 47.4457C17.6014 47.4457 17.3499 47.5556 17.1857 47.297H17.1836Z" fill="#52E0F0"/>
<path d="M61.3296 146.197C61.4759 148.457 62.7894 149.978 64.2871 151.381C64.7418 151.807 65.2796 152.139 65.6101 152.707C65.99 153.359 65.8932 153.96 65.2796 154.354C64.2061 155.045 63.0052 155.126 61.798 155.025C58.3459 154.738 55.2906 153.347 52.5341 151.187C51.1701 150.116 50.0629 148.825 49.5451 147.058C49.4304 146.667 49.3778 146.539 49.8851 146.576C51.8921 146.725 53.9024 146.833 55.9189 146.773C57.5807 146.723 59.231 146.606 60.8666 146.291C61.0192 146.262 61.1707 146.23 61.3286 146.198L61.3296 146.197Z" fill="#FEF6EC"/>
<path d="M17.794 153.64C16.6973 153.586 15.7933 153.534 14.9124 153.283C14.6976 153.222 14.4808 153.151 14.284 153.046C13.5862 152.67 13.4694 152.083 14.0399 151.508C14.6819 150.859 15.3923 150.285 16.0701 149.674C17.0236 148.815 17.7982 147.813 18.3087 146.593C18.4266 146.312 18.3034 145.902 18.5518 145.751C18.7991 145.6 19.1243 145.809 19.4159 145.847C21.765 146.157 24.1236 146.221 26.4864 146.175C27.5525 146.155 28.6187 146.101 29.6796 145.97C30.3721 145.885 30.3942 145.922 30.2437 146.636C29.9037 148.246 28.8944 149.346 27.7125 150.29C25.4623 152.087 22.8985 153.061 20.1073 153.398C19.2759 153.497 18.4413 153.573 17.794 153.641V153.64Z" fill="#FEF6EC"/>
<path d="M5.04145 74.7623C3.62167 74.1917 2.73023 73.2204 2.34502 71.7651C2.20925 71.2533 2.45974 70.8482 2.98387 70.594C3.79638 70.1977 4.6773 70.0678 5.54874 69.9423C6.78329 69.7647 8.03047 69.7958 9.27344 69.8069C9.70916 69.8102 10.0933 69.9612 10.207 70.4374C10.3217 70.9159 9.98596 71.1579 9.6397 71.381C9.024 71.7784 8.3178 71.7828 7.64316 71.9227C6.9801 72.0593 6.30863 72.1581 5.64557 72.2968C5.12986 72.4045 4.92568 72.6987 4.99935 73.2359C5.06461 73.7155 5.02988 74.1928 5.0404 74.7634L5.04145 74.7623Z" fill="#FEF7EE"/>
<path d="M70.9493 74.7234C70.9556 74.276 70.9156 73.8897 71.0272 73.4834C71.2061 72.8307 70.9451 72.4832 70.3199 72.3622C69.2127 72.148 68.1076 71.9238 67.0215 71.603C66.7162 71.513 66.4215 71.3987 66.1837 71.1778C65.9648 70.9747 65.6827 70.7715 65.8037 70.3985C65.9279 70.0144 66.2047 69.8024 66.6005 69.8035C67.5109 69.8057 68.4255 69.7625 69.3316 69.8335C70.3694 69.9145 71.4018 70.0844 72.4112 70.3719C73.5868 70.7071 73.8815 71.3809 73.3468 72.5432C72.8532 73.6144 72.0681 74.3404 70.9493 74.7223V74.7234Z" fill="#FEF7EE"/>
<path d="M67.515 67.951C67.314 67.951 66.9582 67.911 66.6151 67.961C66.0994 68.0354 65.6637 67.5525 65.5763 67.013C65.4921 66.489 65.8658 65.9606 66.3699 65.8185C67.0077 65.6387 67.6602 65.6709 68.298 65.7231C69.8378 65.8507 71.3691 66.0728 72.8668 66.4913C73.9435 66.7921 74.3718 67.5702 74.1045 68.6415C74.0403 68.899 73.9877 68.9723 73.7214 68.8402C72.4679 68.2219 71.106 68.1652 69.7599 68.0442C69.0632 67.9821 68.3664 67.8877 67.515 67.9521V67.951Z" fill="#FEF7EE"/>
<path d="M8.05031 67.9308C6.28637 67.9397 4.52979 68.0163 2.829 68.5858C2.73112 68.6191 2.63324 68.6546 2.53746 68.6957C1.93861 68.9554 1.91545 68.941 1.83968 68.2527C1.75337 67.4657 2.10595 66.8751 2.85215 66.6021C3.82358 66.2468 4.84238 66.1059 5.8517 65.9549C6.97573 65.7862 8.10925 65.6563 9.25012 65.7085C9.78057 65.7329 10.2142 65.956 10.39 66.5066C10.5415 66.9795 10.4015 67.4002 10.0437 67.7477C9.88476 67.902 9.72268 67.9364 9.52377 67.933C9.03332 67.9253 8.54181 67.9308 8.05136 67.9308H8.05031Z" fill="#FEF7EF"/>
<path d="M73.9467 64.9458C72.0259 64.141 70.0146 63.9312 67.9707 63.9457C67.796 63.9468 67.615 63.9379 67.4476 63.979C67.1256 64.0578 66.8804 64.0356 66.7288 63.6604C66.5773 63.2852 66.573 62.9555 66.8446 62.6458C67.0424 62.4193 67.2898 62.3083 67.5729 62.2517C69.2316 61.9187 70.8977 61.7699 72.5416 62.2794C73.7593 62.6569 74.2592 63.6593 73.9467 64.9458Z" fill="#FEF7EE"/>
<path d="M7.47464 63.9347C5.69491 63.9425 3.94991 64.1945 2.27438 64.8428C1.92601 64.9771 1.94075 64.805 1.9197 64.5741C1.83866 63.6905 2.30595 62.8735 3.15109 62.4827C4.26355 61.9677 5.45074 61.9366 6.63266 61.9965C7.30414 62.0298 7.9914 62.0187 8.64078 62.2663C9.00809 62.4061 9.26595 62.6548 9.34594 63.0678C9.44066 63.5562 9.14912 63.9303 8.68183 63.9336C8.27978 63.9369 7.87668 63.9336 7.47464 63.9336V63.9347Z" fill="#FEF7EE"/>
<path d="M17.1836 47.2969C17.3741 47.4256 17.5867 47.3968 17.7961 47.3968C32.9328 47.3968 48.0684 47.3968 63.205 47.3968C63.4313 47.3968 63.6628 47.4312 63.8712 47.298C63.8881 47.3657 64.047 47.4401 63.887 47.4956C63.7765 47.5344 63.6439 47.5067 63.5218 47.5067C48.2178 47.5067 32.9128 47.5067 17.6088 47.4934C17.4783 47.4934 17.1752 47.7076 17.1846 47.2969H17.1836Z" fill="#1D488E"/>
<path d="M37.0016 31.5406C35.1914 31.4585 33.6401 30.8724 32.3908 29.5414C31.8866 29.0041 32.0719 28.206 32.7118 28.0028C33.0254 27.9029 33.3012 28.0028 33.539 28.2093C35.7524 30.1408 38.8877 29.7712 40.9431 27.6898C41.4157 27.2113 41.9135 27.1691 42.2777 27.5466C42.6492 27.9307 42.626 28.5434 42.204 29.0285C40.7895 30.6537 39.0024 31.4107 37.0016 31.5417V31.5406Z" fill="#010101"/>
<path d="M36.0997 26.4165C35.5556 26.4209 35.0188 26.3388 34.5147 26.1334C33.3664 25.665 32.9402 24.4472 33.5032 23.2406C33.8116 22.579 34.2316 21.9906 34.7304 21.4711C35.0767 21.1103 35.5798 21.0815 35.9124 21.3845C36.2302 21.6743 36.2776 22.1471 35.9892 22.579C35.7176 22.9841 35.3798 23.3405 35.1198 23.7523C34.7936 24.2685 34.8704 24.3939 35.4377 24.5749C35.7176 24.6648 35.9934 24.6348 36.2702 24.6404C36.9206 24.6548 37.3174 24.99 37.3027 25.5284C37.2869 26.0857 36.9027 26.412 36.2565 26.4165C36.2039 26.4165 36.1513 26.4165 36.0986 26.4165H36.0997Z" fill="#010202"/>
<path d="M41.4916 22.2103C40.9453 22.2103 40.5875 21.9638 40.3349 21.5187C39.736 20.4608 39.9855 18.99 40.8664 18.4172C41.4547 18.0342 42.1188 18.1563 42.5388 18.7246C43.1471 19.5483 43.0229 21.1635 42.2967 21.8706C42.0567 22.1048 41.7789 22.238 41.4905 22.2103H41.4916Z" fill="#020202"/>
<path d="M30.7384 19.9958C30.7173 19.3941 30.8352 18.8524 31.2299 18.4106C31.8077 17.7645 32.6223 17.83 33.1022 18.5593C33.6232 19.3508 33.599 20.8017 33.0517 21.581C32.5623 22.277 31.6719 22.2881 31.1878 21.5876C30.8615 21.1147 30.6994 20.5763 30.7384 19.9969V19.9958Z" fill="#010101"/>
<path d="M32.2162 16.096C31.651 16.0538 31.2174 16.3102 30.809 16.6355C30.2449 17.0862 29.8671 17.0939 29.5313 16.6588C29.2166 16.2514 29.3219 15.673 29.8292 15.2734C30.9901 14.3576 32.2467 14.0324 33.6423 14.6451C33.8717 14.7461 34.078 14.8682 34.2432 15.0625C34.5221 15.3911 34.5621 15.7641 34.3306 16.1193C34.0885 16.489 33.7317 16.6266 33.3276 16.4168C32.9645 16.2292 32.6077 16.0483 32.2162 16.0949V16.096Z" fill="#020202"/>
<path d="M41.4284 14.6452C42.5503 14.6773 43.5249 15.0892 44.3195 15.9362C44.7289 16.3724 44.7395 16.8708 44.3806 17.2505C44.028 17.6246 43.6228 17.6246 43.185 17.185C42.4945 16.4901 41.6989 16.2725 40.779 16.4901C40.2991 16.6033 39.8992 16.378 39.7329 15.9117C39.5897 15.511 39.8002 15.0881 40.257 14.8561C40.5201 14.7229 40.9243 14.6529 41.4273 14.644L41.4284 14.6452Z" fill="#020202"/>
</g>
<defs>
<clipPath id="clip0_1256_2593">
<rect width="76" height="164" fill="white"/>
</clipPath>
</defs>
</svg>
