<svg width="80" height="162" viewBox="0 0 80 162" fill="none" xmlns="http://www.w3.org/2000/svg">
<g clip-path="url(#clip0_1256_2614)">
<path d="M16.7253 38.8508C15.0239 39.63 13.4899 40.5856 12.0914 41.7864C10.2667 43.3525 9.04288 45.3463 8.09387 47.534C6.76746 50.5885 5.48502 53.663 4.18425 56.7287C4.12929 56.8588 4.0731 56.9889 4.01325 57.1152C3.63951 57.8932 3.70058 58.3861 4.47372 58.7626C5.15158 59.094 5.14058 59.5343 5.02089 60.1122C4.37356 63.2192 3.78486 66.3388 3.35738 69.4846C3.02028 71.9662 2.7528 74.4591 2.58058 76.9633C2.42914 79.1635 2.34974 81.3661 2.21906 83.5663C2.16531 84.4719 1.73784 85.2987 1.43738 86.143C0.433411 88.9699 -0.171173 91.8618 0.0474548 94.8825C0.179367 96.6974 0.417534 98.4999 1.54974 100.017C2.10425 100.76 2.78944 101.317 3.71036 101.478C3.91555 101.514 3.95951 101.649 4.05844 101.77C4.79982 102.676 5.66089 103.454 6.89814 103.212C7.75555 103.043 8.64104 102.841 9.44349 102.494C10.3559 102.098 10.6966 101.198 10.7674 100.22C10.8591 98.9689 10.4841 97.7494 10.5158 96.4961C10.5354 95.7018 10.6917 94.9351 10.7943 94.1595C11.0203 94.0757 11.0154 94.2959 11.0777 94.3947C11.6114 95.2327 12.1659 96.0583 13.0258 96.5774C13.3397 96.7662 13.2151 97.0189 13.198 97.2253C13.0929 98.5061 12.9659 99.7845 12.823 101.062C12.6508 102.608 12.5958 104.164 12.3662 105.706C12.0792 107.627 11.8679 109.56 11.587 111.481C11.2975 113.461 10.969 115.435 10.649 117.41C10.274 119.73 9.88928 122.048 9.51066 124.368C9.11616 126.79 8.73386 129.214 8.32837 131.634C7.95097 133.889 7.54547 136.14 7.16319 138.395C6.97021 139.533 6.78089 140.673 6.63188 141.817C6.50486 142.788 7.17906 143.326 7.81173 143.84C8.17081 144.131 8.57631 144.4 9.00501 144.555C9.45081 144.716 9.36166 144.937 9.27493 145.274C8.61295 147.846 6.91035 149.59 4.92196 151.129C3.67493 152.095 2.46944 153.119 1.51921 154.412C0.738754 155.473 0.300278 156.667 0.233101 158.005C0.174477 159.17 0.739967 159.97 1.60715 160.613C2.59768 161.349 3.74456 161.665 4.92685 161.823C7.11189 162.112 9.28593 162.087 11.4197 161.421C13.8111 160.676 15.7531 159.258 17.3226 157.287C17.4826 157.086 17.5791 156.932 17.8307 157.16C18.1042 157.407 18.4218 157.358 18.7271 157.217C19.1461 157.023 19.5601 156.816 19.9766 156.616C21.8575 155.712 22.1067 154.537 21.9333 152.406C21.8136 150.937 21.231 149.628 20.5091 148.389C20.067 147.63 20.5262 146.947 20.5763 146.234C20.5922 146.012 20.9281 146.122 21.1174 146.111C22.4694 146.026 23.7983 145.826 25.0832 145.366C25.1589 145.338 25.2346 145.313 25.3104 145.287C26.2875 144.948 26.8261 144.317 27.0056 143.212C27.7775 138.471 28.6032 133.739 29.4508 129.011C30.1849 124.918 30.9788 120.837 31.7372 116.749C32.685 111.649 33.6194 106.544 34.5671 101.443C35.289 97.558 36.0243 93.6742 36.7559 89.7904C36.7815 89.6516 36.823 89.514 36.8731 89.3827C36.9366 89.2163 37.0575 89.0775 37.2395 89.1325C37.441 89.1938 37.4789 89.3626 37.4435 89.5803C36.9769 92.4697 36.492 95.3578 36.0694 98.2547C35.841 99.827 35.3989 101.384 35.4404 102.977C35.4917 104.927 35.714 106.872 35.8606 108.819C35.9571 110.104 36.0609 111.387 36.1464 112.672C36.2991 114.953 36.4468 117.233 36.5824 119.516C36.6936 121.385 36.8035 123.255 36.8755 125.125C37.038 129.368 37.1882 133.61 37.3214 137.854C37.3751 139.541 37.4337 141.23 37.3751 142.914C37.3384 143.975 37.7977 144.565 38.6905 144.862C39.2633 145.052 39.2975 145.311 39.0862 145.841C38.6099 147.033 38.0017 148.175 37.7183 149.443C37.3201 151.236 37.413 153.024 37.794 154.803C37.932 155.446 38.4035 155.82 38.9446 156.083C40.2013 156.692 41.5742 156.934 42.8847 157.372C43.7042 157.646 44.2697 157.521 44.6569 156.724C44.8133 156.403 44.9806 156.578 45.1772 156.681C47.3171 157.809 49.4557 158.938 51.7775 159.647C55.3415 160.736 58.9042 160.976 62.4548 159.606C64.7424 158.724 65.1821 157.679 64.3418 155.357C63.8252 153.931 62.9152 152.913 61.6047 152.205C59.8105 151.237 57.9662 150.351 56.2759 149.197C54.903 148.259 53.7293 147.078 52.6899 145.76C52.4041 145.398 52.4151 145.306 52.9036 145.209C54.0444 144.987 55.1656 144.664 56.249 144.222C56.8536 143.976 57.1381 143.581 57.1442 142.854C57.2053 135.878 57.253 128.901 57.4032 121.925C57.5302 116.051 57.5021 110.18 57.4533 104.307C57.4325 101.831 57.3641 99.3529 57.242 96.8788C56.7962 87.8517 54.9641 79.171 50.9824 71.0431C50.798 70.6654 50.7235 70.4577 51.1449 70.1588C51.863 69.6485 51.7079 68.8004 51.6053 68.0862C51.4075 66.704 51.5833 65.3494 51.7055 63.986C51.9168 61.6357 52.3992 59.3267 52.7241 56.9952C52.8108 56.3735 53.0551 56.1534 53.6646 56.1071C56.2172 55.9132 58.7271 55.4466 61.1577 54.6086C61.7525 54.4035 62.4157 54.2021 62.3901 53.304C62.3815 52.9988 62.7455 53.0451 62.9592 53.0025C64.9464 52.6073 66.9055 52.1257 68.8096 51.3927C73.1027 49.7392 75.3378 46.4695 76.0413 41.944C76.4591 39.2598 76.4774 36.5693 76.3039 33.8625C76.111 30.8418 75.7763 27.8435 75.1949 24.8753C75.1522 24.6577 75.1192 24.4338 75.3464 24.2587C77.0942 22.9091 77.7268 20.8877 78.3436 18.8864C79.2401 15.9632 79.7568 12.9575 79.9839 9.90552C80.0438 9.09999 79.9473 8.29572 79.5076 7.57775C79.1803 7.04365 78.7113 6.75095 78.1079 6.76721C77.7134 6.77847 77.6365 6.6634 77.5974 6.26313C77.5363 5.63147 77.3275 5.02357 76.8694 4.5395C76.5091 4.15925 76.0975 3.90659 75.576 4.0079C75.1901 4.08295 74.9873 3.93786 74.8383 3.60264C74.7723 3.45504 74.6697 3.3212 74.5684 3.19362C73.573 1.9428 72.2856 1.9453 71.2975 3.19737C71.1583 3.37374 71.0288 3.55886 70.8725 3.769C70.6771 3.41126 70.4279 3.14859 70.1519 2.92344C69.4313 2.33806 68.3809 2.56821 67.78 3.44754C66.9665 4.63957 66.6465 6.01922 66.4047 7.41889C66.2032 8.58841 66.0395 9.76543 65.8478 11.0112C65.3494 10.2708 64.8401 9.61783 64.1061 9.18505C63.3012 8.71099 62.4792 8.51836 61.6572 9.06622C60.7998 9.63785 60.5849 10.5735 60.8145 11.4853C61.5143 14.2659 62.0004 17.1052 62.9323 19.822C63.1375 20.4199 63.4001 21.0078 63.7226 21.5469C64.0352 22.0697 64.1415 22.6114 64.1293 23.1955C64.0572 26.7028 63.7971 30.1926 63.1351 33.6423C62.9678 34.5117 62.8652 35.3935 62.7113 36.2653C62.6502 36.6105 62.5647 36.8832 62.0725 36.902C61.2908 36.932 60.514 37.1171 59.7348 37.2322C59.6151 37.2497 59.4893 37.2672 59.3708 37.2485C56.9696 36.8857 54.5586 37.2635 52.1513 37.1459C51.0374 37.0921 49.921 37.0221 48.674 36.9808C49.0929 36.8044 49.413 36.6931 49.7122 36.5405C50.6942 36.0402 51.2792 35.1796 51.6139 34.1527C51.7959 33.5973 52.0682 33.2984 52.6349 33.122C54.9384 32.4065 56.1024 30.6216 56.6239 28.3476C57.4142 24.9079 56.3784 22.001 54.0249 19.5131C52.8584 18.281 51.6359 17.0902 50.9531 15.4742C50.4291 14.2334 50.2557 12.9012 50.0578 11.5829C49.187 5.76155 45.8246 1.48625 39.7665 0.351756C36.7901 -0.20611 33.8465 -0.182345 31.0203 1.02094C30.1323 1.39869 29.3299 1.60133 28.3406 1.54379C25.507 1.37993 22.9091 2.1767 20.751 4.14675C18.9287 5.81034 17.8136 7.94799 16.9928 10.2683C16.3955 11.9556 16.1537 13.733 15.7311 15.4642C15.1998 17.6381 13.8588 19.2904 12.3467 20.8052C10.8578 22.2974 9.54852 23.901 8.74975 25.8985C7.51982 28.978 8.45784 32.7405 10.9482 34.6155C11.7922 35.2509 12.7229 35.6637 13.8001 35.6374C13.943 35.6336 14.0981 35.5573 14.1873 35.8038C14.6612 37.1209 15.6285 38.0165 16.7229 38.8495L16.7253 38.8508Z" fill="#040504"/>
<path d="M36.1746 71.5107C39.7617 71.5808 43.3343 71.3143 46.7883 70.1211C47.6396 69.8271 48.4665 69.4619 49.3141 69.1554C49.7978 68.9803 49.9529 68.6901 49.8869 68.1598C49.6879 66.5612 49.8417 64.9652 50.003 63.3716C50.2497 60.925 50.8408 58.5297 51.1181 56.0956C51.5016 52.7322 50.599 49.6064 48.9599 46.6945C48.5874 46.034 48.2075 45.3773 47.8118 44.7319C47.5419 44.2904 47.5651 43.8826 47.973 43.5899C48.4054 43.281 48.806 43.4248 49.1309 43.8376C50.5733 45.6675 51.5773 47.7326 52.2405 49.9754C52.5923 51.1624 52.8537 52.3732 52.8708 53.6215C52.8769 54.1118 53.0295 54.317 53.545 54.2582C55.7874 54.0042 58.0091 53.6428 60.1795 52.9961C60.4457 52.9173 60.6436 52.796 60.6485 52.4482C60.701 49.0185 60.5263 45.6087 59.6836 42.2716C59.421 41.2296 58.9373 40.2777 58.3584 39.3759C58.1569 39.0619 57.9187 38.9356 57.5572 38.9556C55.7092 39.0569 53.8588 39.0182 52.0097 38.9931C49.6964 38.9619 47.3917 38.7968 45.0918 38.5191C44.1282 38.4028 43.1633 38.3102 42.2082 38.1338C41.9407 38.0851 41.8686 38.1726 41.865 38.4565C41.832 41.7887 39.1376 43.69 36.6045 44.0027C33.5474 44.3804 30.8237 43.5349 28.3895 41.6737C27.2903 40.8319 26.4439 39.7436 26.0335 38.3752C25.8918 37.9037 25.7306 37.8712 25.286 37.98C22.4195 38.6829 19.5908 39.4872 16.9025 40.7581C13.2274 42.4954 10.8066 45.3873 9.25182 49.1711C8.16602 51.8153 7.09121 54.4633 5.98098 57.0975C5.84541 57.4202 5.89915 57.514 6.20205 57.6917C9.19075 59.4391 12.3993 60.5736 15.7703 61.1802C17.2762 61.4516 17.1333 61.8982 17.6024 60.1007C18.3376 57.2876 19.0656 54.4721 19.8021 51.659C19.89 51.325 19.9645 50.991 20.3566 50.8422C20.8964 50.637 21.3911 50.9385 21.3923 51.5414C21.3947 52.3957 21.1248 53.2062 20.9477 54.0293C20.5911 55.6929 20.1697 57.3402 19.7031 58.9763C19.4784 59.7618 19.824 60.5273 19.9596 61.289C20.3224 63.3216 20.6399 65.3592 20.894 67.408C20.9624 67.9609 21.0821 68.5088 21.126 69.0641C21.1529 69.3981 21.4069 69.4156 21.5853 69.4706C23.2317 69.986 24.9001 70.4288 26.5941 70.744C29.7514 71.3306 32.9392 71.5708 36.1734 71.5145L36.1746 71.5107Z" fill="#52E0F0"/>
<path d="M35.0766 8.37915C34.577 9.86012 33.7624 11.0897 32.6656 12.1291C31.2952 13.4275 29.672 14.1192 27.8228 14.2367C27.454 14.2605 27.3587 14.3381 27.3477 14.7233C27.3135 15.9641 27.2231 17.2024 26.8738 18.4057C26.6479 19.1837 26.2082 19.8091 25.6256 20.3432C25.2433 20.6947 24.85 20.7473 24.4323 20.4108C24.3212 20.3207 24.2076 20.2344 24.0915 20.1506C22.3328 18.896 21.0125 20.1006 20.7975 21.6866C20.6131 23.0463 20.8903 24.3659 21.6879 25.5079C22.4586 26.6136 23.6409 26.9151 24.8183 26.2909C25.3129 26.0282 25.5108 26.1208 25.6402 26.6574C26.0189 28.2184 26.8604 29.558 27.697 30.8827C28.8549 32.7139 28.6546 34.6639 28.3077 36.6427C28.2845 36.7778 28.2173 36.9591 28.1147 37.0154C27.5541 37.3269 27.7862 37.7171 27.9621 38.1274C28.756 39.9786 30.2179 41.0518 32.0097 41.6822C33.9358 42.3602 35.9047 42.6204 37.8467 41.736C39.355 41.0493 40.061 39.7485 39.9328 38.1061C39.8888 37.5445 39.7202 37.2531 39.0888 37.3707C37.6451 37.6383 36.2271 37.3794 34.8396 36.9892C33.1138 36.5038 31.7471 35.4306 30.5648 34.091C30.3767 33.8784 30.2595 33.5957 30.4573 33.3605C30.6711 33.1079 30.9312 33.2755 31.1645 33.4156C32.977 34.5038 34.919 35.0254 37.0344 34.9015C39.8106 34.7377 42.0421 33.4756 43.8961 31.4343C45.3923 29.7857 46.4757 27.8982 46.8054 25.6392C47.0778 23.773 47.0021 21.8993 46.3535 20.1269C45.8076 18.6359 45.639 17.0936 45.4167 15.5464C45.2665 14.5069 45.0515 13.4775 44.9001 12.4381C44.8268 11.9352 44.5728 12.0641 44.243 12.1154C41.8357 12.4906 39.6628 11.7626 37.6085 10.5593C36.657 10.0015 35.7972 9.31226 35.0802 8.3804L35.0766 8.37915Z" fill="#FBE1C9"/>
<path d="M60.2321 39.0506C61.0089 40.4965 61.5036 42.0188 61.7808 43.6348C62.1778 45.9514 62.4123 48.2754 62.3659 50.6257C62.3573 51.0622 62.3707 51.2598 62.9265 51.1423C64.8917 50.7257 66.8422 50.2704 68.6975 49.4662C71.6007 48.2078 73.3631 45.9614 74.0764 42.8456C74.6907 40.1588 74.786 37.4345 74.6187 34.684C74.4807 32.4062 74.2523 30.1397 73.9567 27.8808C73.8175 26.8188 73.6135 25.7644 73.3973 24.7162C73.2776 24.1346 73.3362 23.723 73.87 23.339C75.139 22.4247 75.8303 21.0688 76.3408 19.6078C77.4633 16.392 78.1509 13.0823 78.3585 9.67007C78.3854 9.23979 78.3451 8.67942 77.9836 8.58561C77.6391 8.4968 77.4376 9.05717 77.2898 9.39614C76.662 10.8358 76.4153 12.3806 76.1588 13.9216C76.1515 13.9616 76.1613 14.0054 76.1539 14.0467C75.9634 15.1399 75.6739 15.2725 74.6932 14.7334C72.8452 13.7152 70.9216 12.9072 68.8514 12.4969C68.601 12.4469 68.3872 12.3318 68.3066 12.0629C68.2162 11.7639 68.3946 11.5776 68.6193 11.4713C68.9833 11.3011 68.8245 10.9597 68.8782 10.7045C69.1836 9.23479 69.462 7.75882 69.7368 6.28285C69.826 5.80629 69.7588 5.33848 69.6025 4.87693C69.5329 4.67055 69.451 4.43914 69.2593 4.39662C69.0126 4.34283 68.9527 4.63677 68.8648 4.80188C68.4202 5.63993 68.1796 6.56304 68.0184 7.48364C67.6727 9.45368 67.4309 11.4437 67.1182 13.42C67.062 13.774 67.1695 13.9041 67.4541 14.0642C68.8257 14.8372 69.7466 15.988 70.1216 17.5665C70.1497 17.6866 70.1717 17.8092 70.179 17.933C70.2034 18.3095 70.1594 18.6547 69.7136 18.7473C69.2837 18.8361 68.9747 18.6247 68.8648 18.2319C68.4349 16.6947 67.3662 15.7841 66.0324 15.1337C65.6697 14.9573 65.5097 14.7246 65.4095 14.3169C65.0993 13.0485 64.6132 11.8565 63.6226 10.9584C63.4871 10.8358 63.3295 10.7395 63.1891 10.6219C63.0168 10.4781 62.83 10.4231 62.6321 10.5381C62.4379 10.6507 62.4489 10.8609 62.488 11.041C62.6443 11.7614 62.8092 12.4807 62.9851 13.1974C63.4834 15.225 63.8339 17.2926 64.5594 19.2576C64.7439 19.7567 64.921 20.2758 65.2019 20.7186C65.7149 21.5253 65.8004 22.3847 65.8016 23.3178C65.8089 27.3342 65.3692 31.298 64.5961 35.2306C64.43 36.0774 64.2883 36.9292 64.1112 37.7747C64.0147 38.2351 63.7839 38.4214 63.3662 38.529C62.3488 38.7904 61.2972 38.8167 60.2333 39.0493L60.2321 39.0506Z" fill="#FBE1C9"/>
<path d="M6.76388 60.1045C6.27655 62.6862 5.777 65.1879 5.38616 67.7133C5.06738 69.7784 4.80601 71.8497 4.57761 73.9248C4.38341 75.6772 4.32845 77.4459 4.17456 79.2033C3.96204 81.6386 4.14525 84.134 3.07044 86.4418C2.64907 87.3474 2.40602 88.3318 2.17884 89.3124C1.56938 91.9417 1.3141 94.5796 1.99074 97.2376C2.15319 97.8768 2.4622 98.4472 2.97029 99.0663C2.84937 98.0682 2.75532 97.1988 2.67716 96.3308C2.56235 95.0587 2.55869 93.7979 2.72601 92.537C2.78098 92.1218 2.908 91.7153 3.46128 91.7415C4.03899 91.769 4.07074 92.1643 4.05975 92.6158C4.00235 94.8223 4.15135 97.0112 4.67777 99.1564C4.88052 99.9832 5.25792 100.736 5.96265 101.263C6.14586 101.399 6.31563 101.543 6.57579 101.469C5.90525 100.155 5.6341 98.7449 5.51807 97.2852C5.44845 96.4133 5.3996 95.544 5.39471 94.6697C5.39227 94.1656 5.46922 93.6765 5.53273 93.1837C5.58647 92.7709 5.84418 92.5896 6.25456 92.6158C6.64785 92.6421 6.77853 92.8985 6.77731 93.2425C6.77731 94.4283 6.82494 95.6116 6.98983 96.7861C7.16082 98.0081 7.37212 99.2239 7.92906 100.337C8.08051 100.641 8.21853 101.071 8.64845 100.965C9.08449 100.856 9.13578 100.403 9.18219 100.012C9.2567 99.384 9.11746 98.7649 9.02952 98.1545C8.81212 96.646 9.02097 95.17 9.24082 93.6928C9.35929 92.8998 9.53517 92.1155 9.67929 91.3275C9.76235 90.8747 9.9138 90.4632 10.4158 90.3794C10.9495 90.2906 11.239 90.6395 11.4161 91.0923C11.8497 92.2006 12.2674 93.3138 12.9856 94.2757C13.5254 94.9987 13.9736 95.2663 14.3596 94.9599C14.9056 94.5271 14.6894 93.9842 14.4744 93.4464C13.744 91.6177 13.4961 89.6426 12.8512 87.7864C12.5825 87.0134 12.3492 86.2079 11.923 85.5262C11.2634 84.4693 11.3648 83.3785 11.5321 82.249C11.8521 80.0839 12.1489 77.915 12.4836 75.7523C13.1199 71.6246 14.0225 67.5644 15.5419 63.6719C15.7165 63.2228 15.8057 63.0652 15.1755 62.9489C12.2649 62.4135 9.4509 61.5317 6.76632 60.1033L6.76388 60.1045Z" fill="#FBE1C9"/>
<path d="M14.4977 87.3647C14.8445 85.8988 15.1658 84.5216 15.4968 83.1482C16.4983 78.9905 18.1032 75.0754 20.0427 71.2967C20.1783 71.0315 20.2626 70.8852 19.9511 70.6188C19.3197 70.0784 19.4345 69.2203 19.3233 68.4836C19.0497 66.6899 18.8372 64.8863 18.5551 63.0601C18.472 63.4603 18.2204 63.5441 17.9053 63.4916C17.5609 63.4341 17.4045 63.5979 17.2848 63.9156C16.1343 66.9626 15.2219 70.0809 14.6772 73.3018C14.2106 76.0648 13.7856 78.8367 13.3471 81.6047C13.2531 82.1951 13.1664 82.7867 13.0955 83.3809C13.054 83.7299 13.0894 84.0613 13.2641 84.3928C13.7477 85.3109 14.152 86.2665 14.4989 87.3647H14.4977Z" fill="#FFFBF5"/>
<path d="M52.1771 152.246C53.2617 152.24 54.2547 152.025 55.1414 151.433C55.4968 151.195 55.6983 151.006 55.1707 150.624C53.4913 149.404 51.9976 147.969 50.8201 146.223C50.6198 145.926 50.3853 145.963 50.1398 145.989C48.9307 146.124 47.7215 146.253 46.5014 146.238C44.778 146.217 43.0644 146.104 41.3728 145.747C41.0003 145.668 40.7756 145.734 40.6314 146.182C40.2785 147.283 40.458 147.757 41.7466 148.754C43.509 150.116 45.5585 150.83 47.6324 151.479C49.1237 151.946 50.6553 152.188 52.1771 152.246Z" fill="#FFF8EA"/>
<path d="M10.8691 153.003C13.8969 152.839 16.2444 151.461 18.0728 149.02C18.6517 148.247 18.7604 147.379 18.9424 146.502C19.001 146.221 18.8203 146.226 18.62 146.213C17.5891 146.148 16.5595 146.048 15.5274 145.998C14.2145 145.934 12.9223 145.707 11.6447 145.429C11.1903 145.33 11.1085 145.467 10.9839 145.841C10.5381 147.186 10.0105 148.497 9.14576 149.631C8.645 150.287 8.06119 150.86 7.41508 151.37C6.91798 151.763 6.94607 151.947 7.49324 152.247C8.55339 152.831 9.72347 152.886 10.8703 153.002L10.8691 153.003Z" fill="#FFF8EA"/>
<path d="M72.2199 11.8652C72.3005 10.1553 72.4984 8.48673 72.9894 6.86817C73.1189 6.44039 73.2911 6.02512 73.4486 5.60484C73.5268 5.39471 73.6135 5.19582 73.6037 4.95567C73.5879 4.55666 73.4755 4.1639 73.1274 4.02005C72.7842 3.87871 72.6095 4.28648 72.441 4.51288C71.7607 5.42723 71.4749 6.52795 71.2025 7.61241C70.9289 8.70438 70.7665 9.82511 70.5454 10.9308C70.4843 11.2385 70.5759 11.4137 70.8776 11.4912C71.3173 11.6038 71.7534 11.7339 72.2211 11.8652H72.2199Z" fill="#F9F5EF"/>
<path d="M74.7751 13.0398C75.0157 11.4138 75.3186 9.85398 75.8755 8.34424C76.1857 7.50494 76.1906 6.5981 75.5958 5.77881C74.8447 6.39546 74.6175 7.30481 74.3317 8.17163C73.9238 9.40744 73.7992 10.7033 73.6038 11.9841C73.5573 12.2893 73.583 12.5357 73.9494 12.6446C74.2279 12.7271 74.4831 12.896 74.7751 13.0398Z" fill="#F9F5EF"/>
<path d="M36.9552 30.8677C38.7848 30.7789 40.0843 29.8845 41.1311 28.5299C41.2935 28.3197 41.4388 28.0958 41.5915 27.8782C41.8052 27.5718 41.8529 27.2628 41.5512 26.9889C41.2703 26.7337 40.9869 26.6824 40.623 26.9001C38.5307 28.1559 36.4239 27.8044 34.3341 26.8851C33.964 26.7224 33.6184 26.4573 33.4144 26.097C33.1555 25.638 32.7561 25.693 32.4056 25.7906C32.0318 25.8944 31.862 26.2321 31.8706 26.6574C31.8914 27.598 32.4275 28.2885 32.9894 28.9189C34.0678 30.1272 35.4468 30.7551 36.9539 30.8677H36.9552Z" fill="#040505"/>
<path d="M38.5528 25.7481C39.6557 25.7518 40.6096 25.3966 41.1091 24.3359C41.4645 23.5804 41.3619 22.7761 40.7488 22.1657C39.9268 21.3477 39.1683 20.5234 39.0303 19.2751C38.9937 18.9436 38.6493 18.7597 38.3402 18.7935C38.019 18.8285 37.7357 19.0124 37.7112 19.4239C37.627 20.8324 38.3048 21.8705 39.2844 22.7386C39.5531 22.9763 39.856 23.1789 39.7912 23.5704C39.7143 24.0319 39.2905 24.1358 38.9265 24.2321C38.6566 24.3034 38.3635 24.2934 38.0801 24.2921C37.6233 24.2896 37.2654 24.4059 37.2459 24.9563C37.2251 25.5292 37.6172 25.6805 38.0667 25.7431C38.2254 25.7656 38.3903 25.7468 38.5528 25.7468V25.7481Z" fill="#040505"/>
<path d="M40.5374 19.0263C40.4971 19.7781 40.6938 20.386 41.2043 20.8663C41.5573 21.1977 41.9701 21.2365 42.378 21.0139C43.5884 20.3534 43.6519 17.8493 42.4855 17.0963C41.9738 16.7661 41.3838 16.8786 40.9979 17.3977C40.6302 17.8931 40.4715 18.4559 40.5374 19.0263Z" fill="#050506"/>
<path d="M31.1071 19.6878C31.1267 20.1194 31.1486 20.5421 31.3722 20.9361C31.6518 21.4315 31.9828 21.7967 32.5984 21.7679C33.1773 21.7417 33.5059 21.3852 33.7404 20.9024C34.1569 20.0443 33.97 18.7259 33.3508 18.078C32.7157 17.4113 31.9035 17.5189 31.443 18.3294C31.2085 18.7422 31.1096 19.1387 31.1059 19.6866L31.1071 19.6878Z" fill="#040505"/>
<path d="M32.5508 13.6151C31.52 13.6251 30.6284 14.0016 29.8882 14.7296C29.4461 15.1649 29.3753 15.7152 29.6757 16.0542C29.9554 16.3694 30.4489 16.3156 30.9166 15.9166C31.6495 15.2912 32.4324 14.9235 33.4034 15.3262C33.7698 15.4788 34.0898 15.3475 34.2766 14.996C34.4647 14.6433 34.3695 14.3243 34.0788 14.0566C33.6391 13.6526 33.1078 13.5963 32.5521 13.6138L32.5508 13.6151Z" fill="#050505"/>
<path d="M42.0361 12.8647C41.3827 12.9048 40.7915 13.0211 40.2737 13.3701C39.8694 13.6415 39.7106 14.0443 39.939 14.4983C40.1625 14.9436 40.5607 14.9811 40.9711 14.7773C41.7894 14.3707 42.5528 14.422 43.299 14.9736C43.6642 15.2438 44.0697 15.2601 44.3787 14.8661C44.6877 14.4695 44.5509 14.0718 44.248 13.7541C43.6349 13.1099 42.8325 12.936 42.0373 12.8672L42.0361 12.8647Z" fill="#050505"/>
</g>
<defs>
<clipPath id="clip0_1256_2614">
<rect width="80" height="162" fill="white" transform="matrix(-1 0 0 1 80 0)"/>
</clipPath>
</defs>
</svg>
