<svg width="69" height="131" viewBox="0 0 69 131" fill="none" xmlns="http://www.w3.org/2000/svg">
<g clip-path="url(#clip0_1256_2572)">
<path d="M54.3392 34.6826C57.1741 35.9826 59.3689 37.9194 60.8012 40.6508C62.7278 44.3244 64.3284 48.1414 65.677 52.0646C65.858 52.5898 65.7617 53.0258 65.316 53.3294C64.6129 53.8086 64.4761 54.332 64.711 55.2013C65.4439 57.9228 65.8985 60.7073 66.2775 63.5009C66.7609 67.0565 66.9203 70.632 66.8203 74.2174C66.805 74.7714 66.9194 75.2723 67.1471 75.7714C67.9214 77.4677 68.5803 79.2036 68.8504 81.0648C69.1664 83.2376 69.0134 85.3501 68.0897 87.3761C67.5811 88.4923 66.7636 89.276 65.6347 89.7291C65.3601 89.8391 65.1504 89.9958 64.9586 90.2165C64.4572 90.7931 63.8747 91.3201 63.0672 91.2462C62.4928 91.193 62.022 91.2894 61.4971 91.5137C60.3673 91.9975 59.3059 91.2372 59.2861 89.9877C59.2717 89.0868 59.4905 88.2103 59.6012 87.323C59.7146 86.4122 59.9343 85.5105 59.8839 84.4637C59.6219 84.8186 59.5913 85.1456 59.4752 85.4303C59.1079 86.3383 58.7379 87.2356 57.7539 87.6599C57.5657 87.741 57.6503 87.8887 57.6476 88.0049C57.6224 89.0562 57.7953 90.0949 57.8664 91.1399C57.9357 92.1705 58.0186 93.201 58.1077 94.2298C58.2355 95.7063 58.3706 97.1819 58.5119 98.6566C58.6388 99.9817 58.7739 101.306 58.917 102.63C59.043 103.805 59.1835 104.978 59.3203 106.151C59.4842 107.561 59.6471 108.971 59.8155 110.381C59.9811 111.761 60.154 113.14 60.3223 114.519C60.3655 114.876 60.4051 115.232 60.4438 115.589C60.5366 116.447 60.1432 117.021 59.3923 117.385C59.2987 117.43 59.2078 117.483 59.1124 117.525C58.2382 117.912 58.2337 117.914 58.7028 118.748C59.4248 120.032 60.5294 120.951 61.6673 121.835C62.8142 122.725 63.9999 123.569 64.9784 124.655C65.5438 125.283 66.011 125.975 66.1938 126.815C66.4593 128.032 65.9876 129.161 64.937 129.892C63.9368 130.587 62.7908 130.859 61.6115 130.955C57.9771 131.248 54.7884 130.122 51.9941 127.816C51.5457 127.447 51.1559 127.015 50.749 126.533C50.6734 126.885 50.496 126.975 50.1719 126.92C48.6667 126.664 47.5045 125.978 47.0183 124.442C46.7537 123.604 46.8221 122.765 47.0967 121.935C47.4235 120.947 47.771 119.969 47.8016 118.903C47.8115 118.562 47.7061 118.492 47.4334 118.46C46.7519 118.38 46.0767 118.265 45.4123 118.09C44.467 117.841 43.899 117.263 43.6334 116.292C42.2101 111.083 41.1748 105.785 39.9567 100.529C39.115 96.8945 38.3228 93.2479 37.5531 89.5976C36.9661 86.8158 36.4503 84.0196 35.8993 81.2296C35.8624 81.0404 35.8129 80.8522 35.7454 80.672C35.6589 80.4423 35.4582 80.3621 35.2367 80.3981C34.9846 80.4396 35.0846 80.6666 35.099 80.8026C35.1764 81.5458 35.2556 82.289 35.3736 83.0268C35.8246 85.8339 36.38 88.6193 37.0741 91.3768C37.3397 92.4317 37.6899 93.4713 37.6035 94.582C37.5018 95.8955 37.3811 97.208 37.2785 98.5215C37.1723 99.8799 37.0741 101.239 36.9796 102.599C36.8635 104.272 36.7482 105.946 36.6474 107.621C36.5394 109.416 36.4467 111.212 36.3503 113.008C36.2873 114.176 36.2333 115.344 36.1694 116.511C36.1469 116.919 35.9074 117.201 35.5887 117.421C35.2196 117.677 34.8055 117.856 34.3779 117.969C34.1015 118.042 34.1132 118.128 34.1753 118.364C34.4931 119.557 35.0531 120.665 35.3916 121.85C35.6022 122.589 35.7066 123.329 35.5599 124.104C35.4078 124.908 34.99 125.506 34.3086 125.924C33.1328 126.646 31.8392 127.017 30.4753 127.167C30.2304 127.194 30.0008 127.135 29.8766 126.94C29.6119 126.525 29.3166 126.632 28.9628 126.794C27.3001 127.557 25.5806 128.167 23.8161 128.654C21.6285 129.258 19.4039 129.584 17.1344 129.515C15.9074 129.478 14.7019 129.271 13.5829 128.72C11.8454 127.864 11.4772 126.265 12.6592 124.723C13.2075 124.008 13.943 123.52 14.6965 123.054C16.0676 122.205 17.5665 121.603 18.9781 120.832C20.2988 120.11 21.4205 119.125 22.5863 118.105C22.0732 117.972 21.615 117.861 21.1621 117.732C20.9209 117.664 20.6895 117.559 20.45 117.482C19.4688 117.165 19.06 116.584 19.0546 115.465C19.042 113.145 18.8035 110.828 18.6846 108.508C18.5928 106.711 18.528 104.913 18.474 103.115C18.347 98.9178 18.221 94.7208 18.1202 90.5237C18.0482 87.5086 18.0914 84.4916 18.2075 81.4791C18.4209 75.9362 19.4409 70.5617 21.7608 65.4827C21.8049 65.3855 21.9165 65.2846 21.7959 65.1602C21.2261 64.5702 21.2828 63.8099 21.2801 63.0874C21.2765 62.2397 21.3467 61.392 21.3872 60.4839C21.1027 60.8497 20.866 61.1866 20.5977 61.4956C19.1186 63.1964 17.2991 64.3792 15.0755 64.7756C12.2271 65.2827 9.89905 64.2837 8.12465 62.0172C6.82018 60.3506 6.19541 58.3939 5.88302 56.3337C5.61294 54.5527 5.61294 52.7492 5.51932 50.9547C5.50041 50.6007 5.41309 50.2854 5.20963 49.989C4.19234 48.5143 3.72241 46.8504 3.53425 45.0893C3.3371 43.2506 3.42892 41.4372 4.0501 39.6833C4.97466 37.0753 7.11277 35.6438 9.87115 35.7628C10.107 35.7727 10.2204 35.7646 10.2033 35.479C10.1763 35.0304 10.1925 34.579 10.1934 34.1295C10.1934 33.7971 10.0611 33.6241 9.7055 33.5593C7.81136 33.2106 5.96764 32.662 4.46962 31.4116C2.15056 29.4766 0.572417 27.0128 0.139395 24.0012C-0.517791 19.4321 1.19269 15.6648 4.51283 12.6154C5.88662 11.3533 7.64572 10.6939 9.47053 10.3714C13.2246 9.70743 16.5681 10.6551 19.4769 13.1307C20.2988 13.8297 20.1665 13.9378 20.7273 12.8748C21.2927 11.8028 21.7284 10.6677 21.9445 9.48222C22.2812 7.63998 23.2066 6.12835 24.3445 4.70501C26.4907 2.02047 29.2968 0.602529 32.6863 0.159311C35.3051 -0.183013 37.8385 0.0241829 40.3268 0.87819C40.7193 1.01332 41.1181 1.00611 41.5223 0.98449C45.9614 0.74126 49.1808 2.67629 51.3702 6.48419C52.5198 8.48318 53.1671 10.6605 53.6919 12.8802C54.1754 14.9252 55.0945 16.6836 56.6943 18.0971C58.3778 19.5844 59.6615 21.3807 60.298 23.5625C60.8724 25.5318 60.7589 27.4371 59.4752 29.1451C58.7928 30.0532 57.8664 30.6531 56.8608 31.136C56.616 31.2531 56.4755 31.399 56.372 31.6612C55.9192 32.8062 55.325 33.8674 54.3392 34.6853V34.6826Z" fill="#060706"/>
<path d="M35.9923 65.6289C33.3977 65.6757 30.8608 65.5163 28.3248 65.282C26.8007 65.1415 25.2963 64.8992 23.8226 64.5136C22.9458 64.2839 22.6118 64.1236 22.6217 63.0074C22.6334 61.7363 22.655 60.4616 22.8432 59.1977C22.9557 58.4419 22.7783 57.7077 22.6073 56.9789C22.2148 55.3024 21.8097 53.6241 21.8943 51.8855C21.9897 49.937 22.348 48.0253 22.7639 46.1227C22.9332 45.348 23.1672 44.5931 23.3608 43.8265C23.4004 43.6706 23.413 43.4959 23.3869 43.3382C23.3554 43.1445 23.2654 42.9662 23.0286 42.9337C22.8116 42.904 22.6955 43.0301 22.6073 43.1995C22.1842 44.0121 21.8772 44.8724 21.6062 45.7444C21.0318 47.5929 20.6681 49.4829 20.525 51.4143C20.5052 51.681 20.4701 51.8035 20.1541 51.6224C18.756 50.8189 17.2616 50.2072 15.8149 49.4991C15.5088 49.3496 15.435 49.1937 15.5718 48.8685C16.0516 47.7245 16.6107 46.6128 16.9969 45.4282C17.2607 44.6201 17.5704 43.8265 17.8026 43.0094C17.9404 42.5229 18.2393 42.1626 18.5408 41.796C19.9803 40.0456 21.4811 38.3502 23.3761 37.0728C25.4521 35.6738 27.7495 34.8252 30.218 34.4243C30.6033 34.3621 30.5952 34.4946 30.4854 34.7675C30.2432 35.3666 30.0794 35.9765 30.0515 36.6341C29.9777 38.3718 31.1687 39.4916 32.3949 40.0375C34.1152 40.805 35.9347 40.7447 37.7316 40.4546C40.1406 40.0663 41.9475 38.6367 43.5157 36.8557C44.3484 35.9098 44.9237 34.818 45.3261 33.6315C45.4125 33.3775 45.5305 33.2577 45.814 33.3135C48.9865 33.9387 52.0123 34.99 54.8499 36.5377C57.5381 38.0034 59.3962 40.26 60.6061 43.0391C61.8062 45.7939 62.9054 48.592 63.9587 51.4071C64.2522 52.1918 64.1747 52.4035 63.45 52.8395C61.4425 54.0466 59.2305 54.7286 56.997 55.3556C55.9329 55.6538 54.8562 55.8961 53.775 56.1204C53.1646 56.2474 53.1367 56.2501 53.0035 55.6357C52.6056 53.8088 52.1293 52.0017 51.6756 50.1883C51.4803 49.4063 51.3317 48.6118 51.1003 47.838C51.0175 47.5614 50.8897 47.3101 50.6637 47.1191C50.4468 46.9362 50.2019 46.7912 49.9318 46.9542C49.6698 47.1128 49.5519 47.3875 49.6176 47.6929C49.7554 48.3361 49.8976 48.9784 50.0714 49.6126C50.5755 51.4576 51.0967 53.298 51.6081 55.1412C51.8467 56.0015 51.7377 56.8447 51.537 57.7023C51.094 59.595 50.508 61.4534 50.1947 63.3759C50.0777 64.0929 49.4709 64.2046 48.9442 64.338C47.0735 64.81 45.1677 65.0667 43.2492 65.2803C40.8185 65.5505 38.3869 65.6703 35.9923 65.6262V65.6289Z" fill="#52E0F0"/>
<path d="M35.9013 6.8645C36.2929 7.99867 36.8663 9.02474 37.7252 9.85893C39.0431 11.1381 40.507 12.2273 42.2751 12.7759C42.8719 12.9615 43.1204 13.1326 43.1573 13.7893C43.2311 15.1199 43.5795 16.3982 44.2565 17.5675C44.5428 18.0621 44.8795 18.5161 45.3044 18.9017C45.7374 19.2944 45.9265 19.2863 46.2866 18.8395C46.915 18.0603 47.6667 17.5585 48.7227 17.7828C49.8192 18.0152 50.3017 18.7855 50.5088 19.8205C50.832 21.4385 50.0614 23.3744 48.6822 24.241C47.8035 24.7941 46.8727 24.9797 45.8896 24.477C45.4899 24.2726 45.3629 24.5752 45.2468 24.8644C44.8822 25.777 44.4501 26.6571 43.891 27.4634C41.9897 30.2101 39.4915 32.1847 36.1578 32.7234C32.5136 33.3126 28.6632 32.0091 26.3937 28.1913C25.1396 26.0824 24.6526 23.8194 24.9055 21.3718C25.127 19.2323 25.5006 17.118 25.8031 14.9911C25.9922 13.6623 26.1659 12.3327 26.4576 11.0219C26.5755 10.494 26.7385 10.3652 27.2552 10.3769C30.3017 10.4445 32.952 9.45265 35.2072 7.40051C35.3845 7.23926 35.5727 7.09062 35.7572 6.93837C35.7896 6.91225 35.8328 6.89964 35.9004 6.8663L35.9013 6.8645Z" fill="#FBE1C9"/>
<path d="M66.3181 87.5007C66.4406 86.7169 66.6152 85.9656 66.6908 85.1954C66.7656 84.4351 66.8061 83.6711 66.6323 82.9198C66.5747 82.6685 66.4865 82.3541 66.1435 82.3721C65.8023 82.3892 65.7492 82.6919 65.7114 82.964C65.6186 83.6324 65.7024 84.3125 65.5772 84.9792C65.2883 86.5178 64.9588 88.0412 64.0045 89.3375C63.8361 89.5663 63.6525 89.787 63.314 89.8834C63.5075 89.1961 63.6957 88.5348 63.8785 87.8727C64.2314 86.5944 64.3466 85.2891 64.3061 83.9675C64.3025 83.8486 64.2845 83.7288 64.2656 83.6108C64.2079 83.2414 64.0612 82.918 63.6354 82.9261C63.2465 82.9333 63.0331 83.1883 62.9548 83.5756C62.8117 84.2846 62.8756 85.0071 62.7963 85.7215C62.6487 87.0466 62.312 88.3159 61.8007 89.542C61.689 89.8104 61.5153 90.0329 61.2407 90.1528C60.9049 90.2996 60.6952 90.1843 60.7204 89.8149C60.76 89.251 60.8473 88.6898 60.9346 88.1303C61.2047 86.3971 61.446 84.6648 60.9814 82.9261C60.9211 82.6982 60.8545 82.4667 60.7492 82.2586C60.3711 81.5136 59.6617 81.4794 59.2187 82.1856C58.8001 82.8523 58.6534 83.6171 58.476 84.3684C58.3806 84.7738 58.2672 85.1719 58.0943 85.5503C58.0394 85.671 57.9773 85.7935 57.8954 85.8971C57.6487 86.2088 57.3678 86.4989 56.924 86.3701C56.5945 86.2746 56.4342 85.7917 56.5 85.3296C56.9474 82.2154 57.7531 79.1957 58.8586 76.2517C59.0873 75.6437 58.9577 74.9968 58.8784 74.3825C58.2114 69.1945 57.0797 64.0992 55.7546 59.0437C55.6375 58.5977 55.5529 58.1437 55.4377 57.6978C55.3665 57.4239 55.4377 57.314 55.7293 57.2348C58.2113 56.5618 60.6537 55.7736 62.9692 54.6367C63.2501 54.4989 63.2168 54.6691 63.26 54.8214C63.6705 56.2835 63.9577 57.7726 64.225 59.2653C64.5473 61.0724 64.8192 62.8894 65.0065 64.7145C65.3162 67.7261 65.5691 70.7448 65.4116 73.7753C65.3594 74.7806 65.5232 75.6851 66.0013 76.5679C67.0807 78.5597 67.5956 80.7055 67.5416 82.9676C67.5074 84.4188 67.2949 85.8467 66.5549 87.1394C66.4829 87.2646 66.3974 87.3826 66.3181 87.5043V87.5007Z" fill="#FAE0C8"/>
<path d="M16.0596 51.1847C16.3738 51.2586 16.6376 51.418 16.9103 51.5558C18.0546 52.1306 19.1538 52.7837 20.2422 53.4575C20.5222 53.6314 20.6905 53.8521 20.7031 54.1737C20.7499 55.3745 21.0911 56.5249 21.2973 57.6987C21.3342 57.9086 21.3801 58.1068 21.2613 58.3059C19.9343 60.5265 18.1968 62.2742 15.6779 63.0894C13.0734 63.9326 10.6365 63.0273 8.98179 60.6373C8.01042 59.2338 7.53778 57.6546 7.30282 55.9808C7.07145 54.3305 7.00123 52.672 6.94182 51.0108C6.92021 50.3991 6.68524 49.8559 6.38546 49.3316C5.19892 47.2543 4.74339 44.9985 4.81361 42.6284C4.84242 41.6726 5.00267 40.733 5.38348 39.8403C6.20991 37.9016 8.14005 36.8314 10.2106 37.1963C11.1928 37.3692 12.1642 37.5881 13.0491 38.0773C13.4435 38.2953 13.818 38.5349 14.0727 38.9277C14.1727 39.0817 14.2384 39.2385 14.2708 39.4187C14.314 39.661 14.2537 39.8736 14.0718 40.024C13.8918 40.1736 13.6973 40.0628 13.5308 39.9682C12.5369 39.4025 11.4611 39.0709 10.3475 38.8565C9.66509 38.725 8.97369 38.7637 8.2967 38.9025C7.9348 38.9763 7.67192 39.2088 7.68453 39.6205C7.69533 39.988 8.11395 40.3213 8.59918 40.3159C9.55075 40.3042 10.4681 40.4637 11.3657 40.7681C11.9733 40.9744 12.5603 41.2276 13.0852 41.5987C13.6829 42.0212 13.9494 42.6077 13.8738 43.3401C13.8648 43.423 13.8297 43.5329 13.7684 43.5743C13.6775 43.6356 13.6127 43.522 13.5542 43.4653C12.6143 42.5635 11.4152 42.2753 10.1944 42.0383C9.67769 41.9383 9.15464 41.9149 8.62979 41.9411C8.47945 41.9483 8.33631 41.9654 8.19317 42.0239C7.84747 42.1645 7.5828 42.387 7.5945 42.777C7.6062 43.1662 7.90779 43.3311 8.25079 43.4004C8.92328 43.5356 9.61647 43.4905 10.2881 43.65C11.2936 43.8878 12.2668 44.1923 13.1032 44.831C13.4209 45.0733 13.6442 45.3562 13.5092 45.7868C13.4245 46.0543 13.2985 46.1886 12.9843 46.0219C11.9868 45.4922 10.9128 45.2012 9.79652 45.0562C9.22846 44.9823 8.6622 44.9877 8.09954 45.1021C8.01312 45.1193 7.92579 45.149 7.84747 45.1895C7.54139 45.3481 7.26951 45.5634 7.32352 45.9435C7.37304 46.2913 7.66022 46.4552 7.98071 46.5327C8.53977 46.6678 9.11143 46.539 9.67859 46.612C10.6914 46.7435 11.6312 47.1309 12.6098 47.3777C12.7962 47.4245 12.744 47.529 12.6629 47.638C12.3649 48.038 12.003 48.3362 11.4764 48.3407C11.1019 48.3443 10.7274 48.3299 10.3538 48.3155C10.018 48.302 9.73891 48.4029 9.67679 48.7587C9.61827 49.0911 9.85234 49.2866 10.1269 49.4037C11.1955 49.8577 12.1975 49.7559 13.0861 48.9785C14.0097 48.1704 14.5886 47.1399 14.9253 45.9706C15.0315 45.6021 14.9586 45.2292 14.8226 44.8733C14.7443 44.6688 14.7101 44.4697 14.856 44.2788C15.3862 43.5896 15.3754 42.8428 15.0558 42.0843C14.8569 41.6122 14.8442 41.2429 15.1791 40.7772C15.7193 40.0285 15.7364 39.1673 15.3169 38.3223C15.2836 38.2557 15.2386 38.1935 15.2161 38.1232C15.144 37.907 14.7938 37.6962 15.0486 37.4818C15.3034 37.2674 15.6599 37.3818 15.9237 37.571C16.4629 37.9575 16.697 38.5331 16.8464 39.1565C17.0958 40.2015 16.8554 41.1681 16.5142 42.1645C15.7445 44.4112 15.063 46.6876 13.9404 48.7956C13.6748 49.2938 13.7567 49.7821 14.0052 50.2487C14.6003 51.364 15.1881 52.4837 15.6356 53.6692C15.9714 54.5593 16.3387 55.4439 16.2757 56.4312C16.2612 56.6601 16.4161 56.8186 16.6286 56.9006C16.8716 56.9943 17.0733 56.8961 17.2335 56.7249C17.6359 56.2943 17.6035 55.7673 17.5135 55.2448C17.2911 53.9431 16.7231 52.7639 16.1874 51.5739C16.1352 51.4585 16.0272 51.3613 16.0578 51.1838L16.0596 51.1847Z" fill="#FBE1C9"/>
<path d="M11.9843 32.226C6.63048 32.236 2.35427 28.6145 1.56925 23.8571C1.00209 20.4177 1.80512 17.3314 4.19079 14.7495C5.79235 13.0163 7.80351 12.0236 10.1649 11.7731C14.929 11.2677 19.3304 14.1469 20.6231 18.7763C21.7935 22.9671 20.9769 26.7516 17.7477 29.801C15.9931 31.4576 13.7947 32.1594 11.9843 32.226Z" fill="#6D6B6A"/>
<path d="M31.4818 36.0169C31.9049 36.3078 32.021 36.2781 32.2065 35.7394C32.3559 35.3061 32.4702 34.8584 32.5612 34.4088C32.5963 34.235 32.6341 34.1755 32.806 34.207C36.5088 34.898 39.5643 33.4711 42.3829 31.2703C42.4658 31.2063 42.5558 31.1487 42.6269 31.0739C42.7638 30.9307 42.8475 30.9676 42.9033 31.1387C42.9168 31.1811 42.9177 31.227 42.9267 31.2712C43.0401 31.854 43.2553 32.3558 43.8279 32.6549C44.1195 32.8071 44.17 33.0576 44.007 33.399C42.8331 35.8466 41.1928 37.8519 38.5839 38.8149C36.6888 39.514 34.7317 39.6131 32.8466 38.7005C31.6681 38.1294 31.1721 37.0925 31.4818 36.0169Z" fill="#FAE0C8"/>
<path d="M58.5552 124.694C57.0347 124.56 55.5709 124.209 54.1737 123.592C52.5199 122.86 50.9238 122.033 49.5869 120.784C49.0809 120.312 48.9675 119.362 49.3195 118.775C49.3942 118.65 49.5005 118.641 49.6256 118.641C50.9877 118.64 52.3462 118.548 53.7037 118.45C54.6562 118.382 55.6105 118.313 56.5486 118.119C56.788 118.069 56.9024 118.086 56.9906 118.362C57.3039 119.338 57.9647 120.095 58.6461 120.829C59.4222 121.663 60.2504 122.445 61.1579 123.135C61.4135 123.329 61.4693 123.44 61.2092 123.703C60.4683 124.451 59.5365 124.616 58.5552 124.694Z" fill="#FAE0C7"/>
<path d="M18.5614 122.623C20.6716 121.765 22.265 120.25 23.8594 118.742C24.1195 118.496 24.3581 118.396 24.7191 118.409C27.1876 118.493 29.6561 118.472 32.1237 118.36C32.4118 118.348 32.6666 118.364 32.7503 118.703C32.8403 119.067 33.1536 119.412 32.7278 119.799C31.5106 120.905 30.0972 121.682 28.6118 122.348C26.5133 123.29 24.3203 123.861 22.0174 123.843C20.695 123.832 19.5796 123.539 18.5596 122.623H18.5614Z" fill="#FAE0C8"/>
<path d="M56.8664 78.0343C56.7233 77.3299 56.6162 76.7488 56.4856 76.1723C55.6169 72.3302 54.3547 68.6484 52.078 65.3837C51.8385 65.0405 51.4154 64.7387 51.365 64.3783C51.3209 64.0621 51.6224 63.6676 51.7224 63.2892C52.1473 61.6803 52.6082 60.0804 52.8126 58.421C52.8513 58.1048 53.7038 57.5355 54.0045 57.6084C54.136 57.64 54.1288 57.7688 54.145 57.8625C54.587 60.4452 55.4773 62.919 56.0022 65.4828C56.4595 67.716 56.924 69.9465 57.2175 72.2085C57.331 73.0833 57.4462 73.9571 57.5623 74.8318C57.6163 75.2408 57.5407 75.6372 57.4363 76.0273C57.2679 76.6542 57.0834 77.2776 56.8682 78.0334L56.8664 78.0343Z" fill="#FFFBF5"/>
<path d="M23.0825 35.6033C21.2064 36.8429 19.6742 38.3329 18.2005 40.0094C18.2221 38.9887 18.0204 38.1023 17.4532 37.3393C16.8195 36.4853 15.9831 36.033 14.8956 36.2249C14.6733 36.2646 14.6309 36.2087 14.6219 36.0276C14.5814 35.2205 14.5472 34.4133 14.4977 33.6062C14.4851 33.3999 14.5787 33.3044 14.7552 33.2512C15.8526 32.9188 16.9374 32.5558 17.9304 31.9666C18.0501 31.8954 18.1203 31.9261 18.1788 32.0351C19.2267 33.9737 21.0543 34.8547 23.0825 35.6033Z" fill="#FFFBF5"/>
<path d="M11.4295 34.8241C11.4295 34.7187 11.4349 34.6142 11.4295 34.5097C11.3647 33.3827 11.7095 33.417 12.6187 33.2368C12.8267 33.1954 12.8771 33.3089 12.8816 33.4899C12.9005 34.3584 12.8672 35.2286 12.9671 36.0943C12.9923 36.3123 12.9068 36.4051 12.6871 36.3628C12.6574 36.3574 12.6277 36.3556 12.598 36.3519C11.8334 36.2523 11.4442 35.743 11.4304 34.8241H11.4295Z" fill="#6D6C6B"/>
<path d="M30.0657 23.14C30.0576 22.4194 30.3421 21.8059 30.8003 21.2726C31.2846 20.7078 31.796 20.1744 31.9976 19.4177C32.0895 19.0727 32.3721 19.0259 32.6719 19.2385C33.0086 19.4763 33.1374 19.9618 32.9861 20.4582C32.8448 20.9231 32.5711 21.3122 32.2659 21.6807C32.094 21.8879 31.9148 22.0888 31.7429 22.2969C31.3819 22.7329 31.2936 23.1419 31.5061 23.3734C31.8347 23.7319 32.5333 23.7941 32.9456 23.5022C32.9825 23.4761 33.0194 23.4499 33.0518 23.4193C33.3084 23.1734 33.5677 22.9139 33.9296 23.2482C34.2141 23.5112 34.2348 24.0751 33.9413 24.3967C33.4443 24.9409 32.8421 25.2832 32.0742 25.1075C31.2369 24.9156 30.4105 24.685 30.1179 23.7148C30.1008 23.658 30.0702 23.6022 30.0666 23.5454C30.0594 23.4112 30.0639 23.2761 30.0639 23.141L30.0657 23.14Z" fill="#060706"/>
<path d="M33.826 28.9903C32.7142 28.9444 31.6798 28.6201 30.7642 27.9535C30.3294 27.6373 30.2097 27.1832 30.4014 26.7292C30.5815 26.3031 30.7669 26.2518 31.1306 26.5292C32.6863 27.7165 34.6065 27.8183 36.1189 26.7842C36.3152 26.6499 36.4889 26.4815 36.6663 26.3211C36.858 26.1482 37.0471 25.9374 37.3271 26.1211C37.599 26.3004 37.7025 26.5878 37.6611 26.9031C37.626 27.1733 37.5026 27.4184 37.2893 27.6012C36.2963 28.4507 35.1647 28.9543 33.8251 28.9894L33.826 28.9903Z" fill="#060706"/>
<path d="M27.7109 18.6819C27.7091 17.4459 28.523 16.5388 29.5718 16.5622C30.0084 16.5721 30.3451 16.7802 30.6107 17.0982C31.2904 17.9126 31.2805 19.1251 30.5954 19.9404C30.1605 20.4575 29.6357 20.7377 28.9389 20.5233C28.3024 20.3278 27.7947 19.6963 27.7262 19.0035C27.7145 18.8846 27.7145 18.7639 27.7109 18.681V18.6819Z" fill="#050606"/>
<path d="M36.266 18.936C36.2291 18.3946 36.3812 17.9504 36.6576 17.5478C37.3868 16.4839 38.8263 16.5766 39.3763 17.7441C39.7842 18.6108 39.6833 19.4612 39.0883 20.2179C38.6696 20.7503 38.08 20.9034 37.4417 20.7602C36.8583 20.6296 36.3254 19.8819 36.2678 19.2062C36.2588 19.1017 36.2669 18.9963 36.2669 18.9369L36.266 18.936Z" fill="#060707"/>
<path d="M29.5601 12.3606C30.499 12.4128 31.2985 12.9002 32.0439 13.4704C32.3923 13.7362 32.3554 14.2416 32.0376 14.5911C31.7414 14.9172 31.4389 14.8334 31.1274 14.6019C30.8042 14.3614 30.4621 14.1497 30.0939 13.9857C29.561 13.7479 29.0523 13.8002 28.5752 14.1371C28.3681 14.283 28.1602 14.4271 27.9612 14.583C27.6839 14.7992 27.4247 14.8235 27.178 14.5407C26.9313 14.2578 26.871 13.9317 27.1114 13.6443C27.7362 12.8975 28.5131 12.4083 29.561 12.3606H29.5601Z" fill="#050606"/>
<path d="M38.2708 13.1543C38.6543 13.1471 38.937 13.212 39.1837 13.3426C39.7346 13.6327 40.2739 13.9471 40.8023 14.2759C41.121 14.4741 41.2497 14.8002 41.1894 15.1678C41.1435 15.4452 41.0697 15.7362 40.7537 15.847C40.4521 15.9524 40.2874 15.7218 40.1064 15.5533C39.9318 15.3912 39.7616 15.2272 39.5618 15.0912C38.7146 14.5155 37.8855 14.4282 37.0158 15.0678C36.5972 15.3758 36.3253 15.3155 36.0985 14.9867C35.8473 14.6227 35.8941 14.1939 36.2623 13.9102C36.8781 13.4336 37.6055 13.239 38.2726 13.1543H38.2708Z" fill="#060706"/>
<path d="M11.4474 30.7047C7.4548 30.7218 3.79166 27.6824 3.10297 23.6871C2.46019 19.9594 3.5567 16.8307 6.70939 14.6479C11.0216 11.6625 17.0488 13.6552 18.9763 18.6387C20.4266 22.389 19.3319 27.2355 15.5787 29.5264C14.3075 30.302 12.9328 30.6939 11.4465 30.7047H11.4474Z" fill="#060707"/>
<path d="M11.4434 14.719C14.1117 14.9253 16.1436 16.1351 17.4175 18.5269C18.9218 21.3538 18.4005 25.1554 16.1661 27.3751C14.9067 28.6263 13.3465 29.3425 11.5703 29.2335C8.7147 29.0578 5.26853 26.7985 4.65546 23.3158C4.05229 19.8926 6.27861 15.3505 10.5935 14.7812C10.8753 14.7442 11.1598 14.7388 11.4434 14.719Z" fill="#FFFBF5"/>
</g>
<defs>
<clipPath id="clip0_1256_2572">
<rect width="69" height="131" fill="white"/>
</clipPath>
</defs>
</svg>
