<svg width="49" height="48" viewBox="0 0 49 48" fill="none" xmlns="http://www.w3.org/2000/svg">
<rect width="48.4022" height="48" rx="8" fill="#0D347A"/>
<g clip-path="url(#clip0_1256_2240)">
<path fill-rule="evenodd" clip-rule="evenodd" d="M35.5762 32.125H33.9512V20.75C33.9512 19.8525 33.2236 19.125 32.3262 19.125H25.8262V14.25C25.8266 13.6504 25.4967 13.0993 24.9681 12.8163C24.4395 12.5333 23.7981 12.5644 23.2993 12.8972L15.1743 18.3125C14.7216 18.6145 14.4501 19.1231 14.4512 19.6673V32.125H12.8262C12.3774 32.125 12.0137 32.4888 12.0137 32.9375C12.0137 33.3862 12.3774 33.75 12.8262 33.75H35.5762C36.0249 33.75 36.3887 33.3862 36.3887 32.9375C36.3887 32.4888 36.0249 32.125 35.5762 32.125ZM32.3262 20.75V32.125H25.8262V20.75H32.3262ZM16.0762 19.6673L24.2012 14.25V32.125H16.0762V19.6673ZM22.5762 22.375V24C22.5762 24.4487 22.2124 24.8125 21.7637 24.8125C21.3149 24.8125 20.9512 24.4487 20.9512 24V22.375C20.9512 21.9263 21.3149 21.5625 21.7637 21.5625C22.2124 21.5625 22.5762 21.9263 22.5762 22.375ZM19.3262 22.375V24C19.3262 24.4487 18.9624 24.8125 18.5137 24.8125C18.0649 24.8125 17.7012 24.4487 17.7012 24V22.375C17.7012 21.9263 18.0649 21.5625 18.5137 21.5625C18.9624 21.5625 19.3262 21.9263 19.3262 22.375ZM19.3262 28.0625V29.6875C19.3262 30.1362 18.9624 30.5 18.5137 30.5C18.0649 30.5 17.7012 30.1362 17.7012 29.6875V28.0625C17.7012 27.6138 18.0649 27.25 18.5137 27.25C18.9624 27.25 19.3262 27.6138 19.3262 28.0625ZM22.5762 28.0625V29.6875C22.5762 30.1362 22.2124 30.5 21.7637 30.5C21.3149 30.5 20.9512 30.1362 20.9512 29.6875V28.0625C20.9512 27.6138 21.3149 27.25 21.7637 27.25C22.2124 27.25 22.5762 27.6138 22.5762 28.0625Z" fill="#FFFBF5"/>
</g>
<defs>
<clipPath id="clip0_1256_2240">
<rect width="24" height="24" fill="white" transform="translate(12.2012 12)"/>
</clipPath>
</defs>
</svg>
