<svg width="23" height="20" viewBox="0 0 23 20" fill="none" xmlns="http://www.w3.org/2000/svg">
<path fill-rule="evenodd" clip-rule="evenodd" d="M16.6339 0C14.5136 0 12.6572 0.925218 11.5 2.48913C10.3428 0.925218 8.48638 0 6.36607 0C2.85183 0.00401934 0.00396099 2.89384 0 6.45986C0 13.7532 10.657 19.6567 11.1108 19.9005C11.3538 20.0332 11.6462 20.0332 11.8892 19.9005C12.343 19.6567 23 13.7532 23 6.45986C22.996 2.89384 20.1482 0.00401934 16.6339 0ZM11.5 18.2126C9.62509 17.104 1.64286 12.0539 1.64286 6.45986C1.64625 3.8143 3.75892 1.6705 6.36607 1.66706C8.36317 1.66706 10.0399 2.74648 10.7402 4.48022C10.8668 4.79289 11.1669 4.99704 11.5 4.99704C11.8331 4.99704 12.1332 4.79289 12.2598 4.48022C12.9601 2.74336 14.6368 1.66706 16.6339 1.66706C19.2411 1.6705 21.3538 3.8143 21.3571 6.45986C21.3571 12.0455 13.3729 17.103 11.5 18.2126Z" fill="#FFFBF5"/>
</svg>
