<svg width="49" height="48" viewBox="0 0 49 48" fill="none" xmlns="http://www.w3.org/2000/svg">
<rect width="48.4022" height="48" rx="8" fill="#0D347A"/>
<path d="M24.2012 25.7143C23.3536 25.7143 22.525 25.4629 21.8202 24.992C21.1154 24.5211 20.5661 23.8517 20.2418 23.0686C19.9174 22.2855 19.8325 21.4238 19.9979 20.5924C20.1632 19.7611 20.5714 18.9974 21.1708 18.3981C21.7702 17.7987 22.5338 17.3905 23.3651 17.2252C24.1965 17.0598 25.0582 17.1447 25.8413 17.4691C26.6244 17.7934 27.2938 18.3427 27.7647 19.0475C28.2356 19.7523 28.487 20.5809 28.487 21.4285C28.4856 22.5648 28.0336 23.6541 27.2302 24.4575C26.4268 25.2609 25.3375 25.7129 24.2012 25.7143ZM24.2012 18.8571C23.6927 18.8571 23.1955 19.0079 22.7726 19.2905C22.3498 19.573 22.0202 19.9746 21.8256 20.4445C21.6309 20.9144 21.58 21.4314 21.6792 21.9302C21.7784 22.429 22.0233 22.8872 22.383 23.2468C22.7426 23.6064 23.2008 23.8513 23.6996 23.9506C24.1984 24.0498 24.7154 23.9989 25.1853 23.8042C25.6552 23.6096 26.0568 23.28 26.3393 22.8571C26.6219 22.4343 26.7727 21.9371 26.7727 21.4285C26.772 20.7468 26.5009 20.0931 26.0188 19.611C25.5367 19.1289 24.883 18.8578 24.2012 18.8571Z" fill="#FFFBF5"/>
<path d="M24.9638 35.1004C24.5644 35.5715 23.8377 35.5715 23.4383 35.1005L16.9702 27.4723C16.8697 27.3442 16.7703 27.2154 16.6719 27.0857C15.4374 25.4583 14.7702 23.4712 14.7725 21.4286C14.7725 18.928 15.7658 16.5298 17.534 14.7616C19.3022 12.9934 21.7004 12 24.201 12C26.7016 12 29.0998 12.9934 30.868 14.7616C32.6362 16.5298 33.6296 18.928 33.6296 21.4286C33.6316 23.4698 32.965 25.4555 31.7319 27.0821C31.7313 27.0828 31.7309 27.0836 31.7306 27.0844C31.7303 27.0853 31.7299 27.086 31.7294 27.0868C31.7137 27.1073 31.4718 27.4249 31.4345 27.4689L24.9638 35.1004ZM18.0408 26.0529C18.0408 26.0529 18.2405 26.3169 18.2859 26.3734L23.4383 32.4501C23.8377 32.9212 24.5644 32.9212 24.9638 32.4501L30.1239 26.364C30.1616 26.3169 30.363 26.0503 30.363 26.0503C31.3721 24.721 31.9174 23.0975 31.9153 21.4286C31.9153 19.3826 31.1026 17.4205 29.6559 15.9737C28.2092 14.527 26.247 13.7143 24.201 13.7143C22.1551 13.7143 20.1929 14.527 18.7462 15.9737C17.2995 17.4205 16.4868 19.3826 16.4868 21.4286C16.4846 23.0985 17.0306 24.7231 18.0408 26.0529Z" fill="#FFFBF5"/>
</svg>
