<svg width="49" height="48" viewBox="0 0 49 48" fill="none" xmlns="http://www.w3.org/2000/svg">
<rect width="48.4022" height="48" rx="8" fill="#0D347A"/>
<g clip-path="url(#clip0_1256_2239)">
<g clip-path="url(#clip1_1256_2239)">
<path fill-rule="evenodd" clip-rule="evenodd" d="M22.5935 26.1728C24.8685 24.6168 25.8835 21.7139 25.0924 19.0262C24.3012 16.3385 21.8905 14.5 19.1576 14.5C16.4246 14.5 14.0139 16.3385 13.2228 19.0262C12.4316 21.7139 13.4466 24.6168 15.7216 26.1728C13.7173 26.9318 12.0057 28.3362 10.842 30.1765C10.6755 30.4307 10.6552 30.7572 10.7888 31.0311C10.9223 31.305 11.1891 31.4838 11.4869 31.499C11.7847 31.5141 12.0674 31.3634 12.2267 31.1044C13.7518 28.6945 16.3597 27.2406 19.1576 27.2406C21.9554 27.2406 24.5633 28.6945 26.0884 31.1044C26.3407 31.4897 26.8474 31.5954 27.2259 31.3417C27.6045 31.088 27.7146 30.569 27.4731 30.1765C26.3094 28.3362 24.5978 26.9318 22.5935 26.1728ZM14.6107 20.8728C14.6107 18.2928 16.6464 16.2013 19.1576 16.2013C21.6687 16.2013 23.7044 18.2928 23.7044 20.8728C23.7044 23.4528 21.6687 25.5443 19.1576 25.5443C16.6476 25.5414 14.6135 23.4516 14.6107 20.8728ZM36.3261 31.3518C35.9437 31.608 35.4316 31.4972 35.1821 31.1044C33.6588 28.6929 31.0495 27.2392 28.2513 27.243C27.7947 27.243 27.4246 26.8627 27.4246 26.3936C27.4246 25.9246 27.7947 25.5443 28.2513 25.5443C30.0825 25.5425 31.7339 24.4123 32.4411 22.6768C33.1483 20.9414 32.7731 18.9394 31.4893 17.5978C30.2055 16.2562 28.2637 15.8367 26.5627 16.5336C26.2866 16.6562 25.9675 16.6151 25.7295 16.4263C25.4914 16.2374 25.3719 15.9306 25.4176 15.6252C25.4632 15.3197 25.6667 15.0638 25.9489 14.957C28.8971 13.749 32.2571 15.0235 33.734 17.91C35.2108 20.7965 34.3274 24.3628 31.6873 26.1728C33.6915 26.9318 35.4032 28.3362 36.5669 30.1765C36.8162 30.5694 36.7084 31.0955 36.3261 31.3518Z" fill="#FFFBF5"/>
</g>
</g>
<defs>
<clipPath id="clip0_1256_2239">
<rect width="27" height="27" fill="white" transform="translate(10.7012 10.5)"/>
</clipPath>
<clipPath id="clip1_1256_2239">
<rect width="27" height="27" fill="white" transform="translate(10.7012 9.5)"/>
</clipPath>
</defs>
</svg>
