<svg width="28" height="24" viewBox="0 0 28 24" fill="none" xmlns="http://www.w3.org/2000/svg">
<path d="M6.77778 0H12.3333C10.7037 2.22422 9.40741 4.66368 8.44444 7.31839C7.55556 9.97309 7.14815 12.2332 7.22222 14.0987L6.33333 12.2691C8.03704 12.2691 9.48148 12.843 10.6667 13.991C11.8519 15.0673 12.4444 16.4305 12.4444 18.0807C12.4444 19.6592 11.8519 21.0583 10.6667 22.278C9.55555 23.426 8.18518 24 6.55556 24C4.7037 24 3.14815 23.3543 1.88889 22.0628C0.62963 20.6996 0 19.0135 0 17.0045C0 15.2825 0.296296 13.417 0.888889 11.4081C1.55556 9.32735 2.40741 7.28251 3.44444 5.27354C4.48148 3.26458 5.59259 1.50673 6.77778 0ZM22.3333 0H27.8889C26.2593 2.22422 24.963 4.66368 24 7.31839C23.1111 9.97309 22.7037 12.2332 22.7778 14.0987L21.8889 12.2691C23.5926 12.2691 25.037 12.843 26.2222 13.991C27.4074 15.0673 28 16.4305 28 18.0807C28 19.6592 27.4074 21.0583 26.2222 22.278C25.1111 23.426 23.7407 24 22.1111 24C20.2593 24 18.7037 23.3543 17.4444 22.0628C16.1852 20.6996 15.5556 19.0135 15.5556 17.0045C15.5556 15.2825 15.8519 13.417 16.4444 11.4081C17.1111 9.32735 17.963 7.28251 19 5.27354C20.037 3.26458 21.1481 1.50673 22.3333 0Z" fill="#52E0F0"/>
</svg>
