<svg width="127" height="166" viewBox="0 0 127 166" fill="none" xmlns="http://www.w3.org/2000/svg">
<path d="M1.38104 84.1482C1.38104 75.6361 1.28542 67.1221 1.4045 58.61C1.56145 47.4568 4.81427 37.2181 10.8851 27.8418C14.0387 22.9718 17.7913 18.6419 22.1536 14.8396C25.9657 11.5161 30.1711 8.76692 34.7084 6.52007C40.6512 3.57647 46.9078 1.66808 53.4748 0.735495C57.7073 0.135973 61.9559 -0.137682 66.2191 0.0675594C74.2203 0.452837 81.9022 2.237 89.2486 5.45605C96.7176 8.72911 103.272 13.3146 108.753 19.3153C115.755 26.9812 120.314 35.9848 122.796 46.0453C123.716 49.7774 124.223 53.5654 124.257 57.4092C124.312 63.5178 124.357 69.6283 124.369 75.7369C124.387 84.8737 124.331 94.0124 124.394 103.149C124.425 107.65 124.302 112.135 123.678 116.591C122.966 121.679 121.407 126.523 119.247 131.19C116.556 137.005 113.045 142.264 108.61 146.885C102.35 153.412 94.9279 158.206 86.4414 161.341C81.278 163.247 75.9414 164.367 70.4443 164.799C65.5858 165.181 60.7255 165.307 55.8761 164.907C42.255 163.786 30.2054 158.867 19.949 149.764C11.2983 142.084 5.55035 132.634 2.77743 121.416C1.85011 117.662 1.42975 113.816 1.40269 109.955C1.34135 101.352 1.38285 92.7503 1.38285 84.1464H1.37563L1.38104 84.1482ZM43.9419 97.5555C44.5138 98.0146 45.064 98.065 45.6233 98.0614C49.2333 98.0326 52.6052 97.1234 55.7209 95.3014C58.3621 93.7567 60.5614 91.6773 62.701 89.5259C64.4564 87.7615 66.1758 85.9557 68.3136 84.6253C69.4791 83.8997 70.7348 83.419 72.1059 83.3524C72.777 83.32 73.5474 83.3092 73.9533 84.0096C74.352 84.6991 73.9154 85.2698 73.5203 85.8045C71.7378 88.2134 69.9536 90.6205 68.0719 92.9556C63.0673 99.1704 57.0217 103.979 49.4751 106.79C45.3779 108.314 41.169 109.479 36.9491 110.597C31.618 112.009 26.7812 114.34 22.684 118.056C18.9441 121.448 15.7129 125.328 12.3681 129.094C12.148 129.343 11.798 129.631 12.0488 130.03C12.2905 130.414 12.691 130.263 13.0374 130.207C16.1008 129.712 19.184 129.521 22.2619 129.937C27.5317 130.648 32.5074 132.31 37.1999 134.807C39.7744 136.177 42.1991 137.774 44.4903 139.576C44.8133 139.83 45.1506 140.275 45.5493 139.576C47.4617 136.224 50.4962 134.308 54.1062 133.34C59.948 131.771 65.8077 132.132 71.6116 133.638C74.5234 134.395 77.1574 135.698 79.3332 137.844C79.8834 138.386 79.9971 139.574 80.8703 139.472C81.5919 139.387 82.245 138.676 82.9143 138.222C87.0981 135.381 91.5254 133.041 96.4091 131.62C101.722 130.075 107.113 129.66 112.588 130.448C113.229 130.54 113.499 130.227 113.75 129.73C116.756 123.758 118.403 117.392 118.477 110.756C118.636 96.4897 118.531 82.2218 118.526 67.9539C118.526 63.9085 118.636 59.8577 118.439 55.8213C118.212 51.1259 117.247 46.5332 115.731 42.0719C114.263 37.7474 112.188 33.7182 109.769 29.8528C109.211 28.9634 109.164 28.9256 108.634 29.7988C107.356 31.8944 106.079 33.99 104.842 36.1091C103.315 38.7268 101.711 41.2887 99.6926 43.5662C96.5805 47.0787 92.7395 49.7108 88.9816 52.4438C85.4906 54.9823 81.8824 57.3858 78.9904 60.648C77.659 62.1513 76.4177 63.7339 75.0827 65.2336C73.9966 66.4524 72.7229 66.6829 71.451 66.0095C70.2278 65.3632 69.6649 64.0561 69.9319 62.5726C70.2711 60.6912 71.0685 58.9953 72.0013 57.3498C74.0435 53.7436 76.8236 50.719 79.6218 47.7088C80.504 46.7618 81.3123 45.759 81.7561 44.5204C82.6329 42.0755 81.4007 39.8196 78.8695 39.2165C77.1213 38.7988 75.4092 39.0887 73.7152 39.5045C69.5693 40.5182 65.7211 42.3203 61.8116 43.9712C59.6683 44.8768 57.9797 46.2883 56.6266 48.1355C55.6704 49.4408 54.7413 50.764 53.8122 52.0909C52.2985 54.2531 50.8137 56.4406 48.8563 58.2409C47.4473 59.5372 45.921 60.6156 43.8769 60.6354C42.8847 60.6462 41.9934 60.4356 41.4757 59.5318C40.9416 58.601 41.169 57.69 41.7625 56.8421C44.3911 53.0865 46.7942 49.1869 49.1756 45.2729C51.3081 41.7676 54.0269 38.8654 57.5701 36.6762C61.4941 34.2511 65.335 31.6784 69.0984 29.0102C72.9953 26.2485 77.2097 24.5273 81.9744 23.9584C87.4679 23.3031 92.6493 21.7674 96.7753 17.7633C97.2823 17.2718 97.5493 17.0684 96.815 16.5121C88.4006 10.146 78.8821 6.73431 68.4183 5.7135C63.8196 5.26521 59.2407 5.36063 54.6836 5.97996C47.7125 6.92875 41.0986 9.01357 34.961 12.5135C26.027 17.6085 18.9495 24.5579 13.9142 33.5273C9.27584 41.7874 7.04415 50.6668 7.08384 60.1403C7.13075 71.4394 7.1091 82.7403 7.11993 94.0394C7.12353 97.8166 7.13436 101.592 7.16322 105.369C7.16503 105.695 7.06219 106.181 7.48436 106.3C7.84157 106.401 8.00575 105.976 8.22044 105.738C11.0078 102.665 13.5065 99.3739 15.6371 95.8164C18.3325 91.3154 21.9155 87.6733 26.1786 84.6523C28.9208 82.7097 31.6595 80.7599 34.0878 78.4212C35.2767 77.2762 36.4422 76.1096 37.6455 74.9789C38.3924 74.2768 39.2151 73.6809 40.2597 73.4774C41.9465 73.1498 43.2238 74.158 43.3628 75.8539C43.5053 77.5696 42.8251 79.0099 41.9682 80.3998C40.2777 83.1454 38.1886 85.5741 35.9442 87.8767C35.3597 88.4763 34.768 89.0776 34.4631 89.8877C33.9814 91.1642 34.5208 92.1382 35.8649 92.2822C36.6948 92.3705 37.5373 92.3759 38.3744 92.2066C40.9074 91.6899 43.1805 90.5809 45.3274 89.1874C48.8996 86.8685 51.8854 83.8655 54.9416 80.9435C56.9784 78.9937 59.0207 77.0493 61.209 75.267C62.2284 74.437 63.3631 74.2804 64.5737 74.8115C65.9809 75.429 66.2714 76.9629 65.1763 78.0161C64.507 78.6607 63.8124 79.28 63.1449 79.9263C59.6304 83.3254 56.1413 86.7497 52.6016 90.1218C51.1529 91.5027 49.4895 92.6351 47.8027 93.7837C47.9181 93.8323 47.9759 93.8828 48.0174 93.872C48.2772 93.8053 48.5388 93.7351 48.7931 93.6469C50.6929 92.9844 52.2823 91.8069 53.8302 90.5773C56.4895 88.4637 58.8114 85.9828 61.2902 83.6729C63.484 81.6313 65.4541 79.352 67.8355 77.5048C69.1129 76.5146 70.502 76.0393 72.1185 76.4948C73.3958 76.8531 73.919 77.8811 73.45 79.1378C73.0963 80.0848 72.409 80.7347 71.552 81.219C70.2765 81.9391 68.9198 82.5081 67.6948 83.3308C65.0807 85.0844 62.9175 87.3348 60.7454 89.5745C57.7578 92.6567 54.366 95.0872 50.2021 96.3402C48.1978 96.9434 46.1483 97.3106 43.9365 97.5537L43.9419 97.5555Z" fill="#0D347A"/>
<path d="M67.4567 43.5134C65.4091 46.9359 63.4985 50.1711 61.5429 53.3794C60.3756 55.295 59.2336 57.2286 57.8967 59.0343C56.8522 60.444 55.6867 61.7133 53.9331 62.2768C53.2223 62.5054 52.5061 62.5234 51.8043 62.3722C50.3772 62.0644 49.5942 60.4854 50.4873 59.3962C53.2782 55.9863 55.362 52.0669 58.281 48.7543C59.4266 47.4544 60.8086 46.4696 62.389 45.7639C64.0109 45.0401 65.6346 44.3218 67.4567 43.5116V43.5134Z" fill="#0D347A"/>
<path d="M76.2445 40.9389C76.2553 41.2504 76.0749 41.3872 75.9432 41.5348C73.5257 44.2444 71.819 47.3752 70.3216 50.6591C69.1093 53.3164 67.5 55.7343 65.0969 57.5131C64.3717 58.0496 63.5634 58.4529 62.6235 58.4529C61.4526 58.4529 60.998 57.8353 61.4652 56.7911C61.8802 55.8657 62.3601 54.9656 62.8742 54.0924C64.6152 51.129 66.3291 48.1512 67.9005 45.0942C69.2085 42.5502 71.5845 41.6501 74.1554 41.0667C74.8229 40.9155 75.503 40.7769 76.2409 40.9407L76.2445 40.9389Z" fill="#0D347A"/>
</svg>
