<svg width="149" height="39" viewBox="0 0 149 39" fill="none" xmlns="http://www.w3.org/2000/svg">
<path d="M18.1929 30.0473C17.6154 30.0473 17.1297 29.868 16.7359 29.5094C16.3684 29.1251 16.1846 28.6512 16.1846 28.0877V18.6355C16.1846 17.1754 15.909 15.9842 15.3577 15.0621C14.8064 14.1399 14.0582 13.4611 13.1131 13.0256C12.1943 12.5645 11.131 12.334 9.92342 12.334C8.82082 12.334 7.82322 12.5517 6.93064 12.9872C6.03806 13.4227 5.32924 14.0118 4.80419 14.7547C4.27915 15.4719 4.01662 16.3044 4.01662 17.2522H1.53577C1.53577 15.6384 1.92955 14.2039 2.71713 12.9488C3.53095 11.668 4.63355 10.6562 6.02493 9.9133C7.41631 9.17044 8.97833 8.79901 10.711 8.79901C12.5224 8.79901 14.1369 9.18325 15.5546 9.95172C16.9984 10.6946 18.1273 11.7961 18.9411 13.2562C19.7812 14.7163 20.2012 16.5094 20.2012 18.6355V28.0877C20.2012 28.6512 20.0043 29.1251 19.6106 29.5094C19.243 29.868 18.7705 30.0473 18.1929 30.0473ZM2.00831 30.0473C1.43076 30.0473 0.945087 29.868 0.551301 29.5094C0.183767 29.1251 0 28.6512 0 28.0877V10.9507C0 10.3616 0.183767 9.88768 0.551301 9.52906C0.945087 9.17044 1.43076 8.99113 2.00831 8.99113C2.61212 8.99113 3.09779 9.17044 3.46532 9.52906C3.83285 9.88768 4.01662 10.3616 4.01662 10.9507V28.0877C4.01662 28.6512 3.83285 29.1251 3.46532 29.5094C3.09779 29.868 2.61212 30.0473 2.00831 30.0473Z" fill="#FFFBF5"/>
<path d="M36.9624 30.1626C34.7834 30.1626 32.8408 29.7143 31.1344 28.8177C29.4542 27.8956 28.1284 26.6404 27.1571 25.0522C26.212 23.4384 25.7395 21.5941 25.7395 19.5192C25.7395 17.4187 26.1858 15.5744 27.0784 13.9862C27.9972 12.3724 29.2573 11.1172 30.8587 10.2207C32.4601 9.29852 34.2978 8.83744 36.3717 8.83744C38.4194 8.83744 40.1783 9.28571 41.6484 10.1823C43.1186 11.0532 44.2343 12.27 44.9956 13.8325C45.7832 15.3695 46.177 17.1498 46.177 19.1734C46.177 19.6601 46.0064 20.07 45.6651 20.403C45.3238 20.7103 44.8906 20.864 44.3656 20.864H28.496V17.7901H44.2474L42.6329 18.866C42.6067 17.5852 42.3441 16.4453 41.8453 15.4463C41.3465 14.4217 40.6377 13.6148 39.7189 13.0256C38.8001 12.4365 37.6843 12.1419 36.3717 12.1419C34.8753 12.1419 33.589 12.4621 32.5126 13.1025C31.4625 13.7429 30.6618 14.6266 30.1105 15.7537C29.5592 16.8552 29.2836 18.1103 29.2836 19.5192C29.2836 20.9281 29.6117 22.1833 30.268 23.2847C30.9243 24.3862 31.83 25.2571 32.9851 25.8975C34.1403 26.5379 35.466 26.8581 36.9624 26.8581C37.7762 26.8581 38.6032 26.7172 39.4432 26.4355C40.3096 26.1281 41.0053 25.7823 41.5303 25.398C41.9241 25.1163 42.3441 24.9754 42.7904 24.9754C43.263 24.9498 43.6699 25.0778 44.0112 25.3596C44.4575 25.7438 44.6937 26.1665 44.72 26.6276C44.7462 27.0887 44.5362 27.4857 44.0899 27.8187C43.1973 28.5103 42.0816 29.0739 40.7427 29.5094C39.4301 29.9448 38.17 30.1626 36.9624 30.1626Z" fill="#FFFBF5"/>
<path d="M53.3082 39C52.7307 39 52.245 38.8079 51.8512 38.4236C51.4837 38.065 51.2999 37.6039 51.2999 37.0404V19.5192C51.3262 17.4956 51.8118 15.6768 52.7569 14.0631C53.702 12.4493 54.9884 11.1813 56.616 10.2591C58.2437 9.31133 60.0813 8.83744 62.129 8.83744C64.203 8.83744 66.0538 9.31133 67.6814 10.2591C69.3091 11.1813 70.5954 12.4493 71.5405 14.0631C72.5119 15.6768 72.9975 17.4956 72.9975 19.5192C72.9975 21.5429 72.5512 23.3616 71.6587 24.9754C70.7923 26.5635 69.5978 27.8315 68.0752 28.7793C66.5526 29.7015 64.833 30.1626 62.9166 30.1626C61.3677 30.1626 59.937 29.8552 58.6243 29.2404C57.338 28.6 56.2354 27.7419 55.3165 26.666V37.0404C55.3165 37.6039 55.1328 38.065 54.7652 38.4236C54.3977 38.8079 53.912 39 53.3082 39ZM62.129 26.7044C63.4679 26.7044 64.6624 26.397 65.7125 25.7823C66.7626 25.1419 67.5895 24.2837 68.1933 23.2079C68.8234 22.1064 69.1384 20.8768 69.1384 19.5192C69.1384 18.136 68.8234 16.9064 68.1933 15.8305C67.5895 14.7291 66.7626 13.8709 65.7125 13.2562C64.6624 12.6158 63.4679 12.2956 62.129 12.2956C60.8164 12.2956 59.6219 12.6158 58.5456 13.2562C57.4955 13.8709 56.6685 14.7291 56.0647 15.8305C55.4609 16.9064 55.159 18.136 55.159 19.5192C55.159 20.8768 55.4609 22.1064 56.0647 23.2079C56.6685 24.2837 57.4955 25.1419 58.5456 25.7823C59.6219 26.397 60.8164 26.7044 62.129 26.7044Z" fill="#FFFBF5"/>
<path d="M80.9963 22.3626C80.4188 22.3626 79.9331 22.1833 79.5393 21.8246C79.1718 21.4404 78.988 20.9665 78.988 20.403V1.95961C78.988 1.37044 79.1718 0.896552 79.5393 0.537931C79.9331 0.17931 80.4188 0 80.9963 0C81.6001 0 82.0858 0.17931 82.4533 0.537931C82.8209 0.896552 83.0046 1.37044 83.0046 1.95961V20.403C83.0046 20.9665 82.8209 21.4404 82.4533 21.8246C82.0858 22.1833 81.6001 22.3626 80.9963 22.3626ZM97.1809 30.0473C96.6034 30.0473 96.1177 29.868 95.7239 29.5094C95.3564 29.1251 95.1726 28.6512 95.1726 28.0877V18.6355C95.1726 17.1754 94.897 15.9842 94.3457 15.0621C93.7944 14.1399 93.0462 13.4611 92.1011 13.0256C91.1823 12.5645 90.119 12.334 88.9114 12.334C87.8088 12.334 86.8112 12.5517 85.9187 12.9872C85.0261 13.4227 84.3173 14.0118 83.7922 14.7547C83.2672 15.4719 83.0046 16.3044 83.0046 17.2522H80.5238C80.5238 15.6384 80.9176 14.2039 81.7051 12.9488C82.519 11.668 83.6216 10.6562 85.0129 9.9133C86.4043 9.17044 87.9663 8.79901 89.699 8.79901C91.5104 8.79901 93.1249 9.18325 94.5426 9.95172C95.9865 10.6946 97.1153 11.7961 97.9291 13.2562C98.7692 14.7163 99.1892 16.5094 99.1892 18.6355V28.0877C99.1892 28.6512 98.9924 29.1251 98.5986 29.5094C98.231 29.868 97.7585 30.0473 97.1809 30.0473ZM80.9963 30.0473C80.4188 30.0473 79.9331 29.868 79.5393 29.5094C79.1718 29.1251 78.988 28.6512 78.988 28.0877V10.9507C78.988 10.3616 79.1718 9.88768 79.5393 9.52906C79.9331 9.17044 80.4188 8.99113 80.9963 8.99113C81.6001 8.99113 82.0858 9.17044 82.4533 9.52906C82.8209 9.88768 83.0046 10.3616 83.0046 10.9507V28.0877C83.0046 28.6512 82.8209 29.1251 82.4533 29.5094C82.0858 29.868 81.6001 30.0473 80.9963 30.0473Z" fill="#FFFBF5"/>
<path d="M115.634 30.1626C113.508 30.1626 111.631 29.7143 110.003 28.8177C108.376 27.8956 107.089 26.6404 106.144 25.0522C105.225 23.4384 104.766 21.5941 104.766 19.5192C104.766 17.4187 105.225 15.5744 106.144 13.9862C107.089 12.3724 108.376 11.1172 110.003 10.2207C111.631 9.29852 113.508 8.83744 115.634 8.83744C117.735 8.83744 119.599 9.29852 121.226 10.2207C122.854 11.1172 124.127 12.3724 125.046 13.9862C125.991 15.5744 126.464 17.4187 126.464 19.5192C126.464 21.5941 126.004 23.4384 125.085 25.0522C124.166 26.6404 122.893 27.8956 121.266 28.8177C119.638 29.7143 117.761 30.1626 115.634 30.1626ZM115.634 26.7044C117 26.7044 118.207 26.397 119.257 25.7823C120.307 25.1675 121.121 24.3222 121.699 23.2463C122.303 22.1704 122.604 20.9281 122.604 19.5192C122.604 18.1103 122.303 16.868 121.699 15.7921C121.121 14.6906 120.307 13.8325 119.257 13.2177C118.207 12.603 117 12.2956 115.634 12.2956C114.269 12.2956 113.062 12.603 112.012 13.2177C110.962 13.8325 110.135 14.6906 109.531 15.7921C108.927 16.868 108.625 18.1103 108.625 19.5192C108.625 20.9281 108.927 22.1704 109.531 23.2463C110.135 24.3222 110.962 25.1675 112.012 25.7823C113.062 26.397 114.269 26.7044 115.634 26.7044Z" fill="#FFFBF5"/>
<path d="M140.278 30.1626C138.44 30.1626 136.734 29.8936 135.159 29.3557C133.61 28.7921 132.402 28.0877 131.536 27.2424C131.142 26.8325 130.971 26.3714 131.024 25.8591C131.103 25.3212 131.365 24.8857 131.811 24.5527C132.336 24.1429 132.848 23.9764 133.347 24.0532C133.872 24.1044 134.318 24.3222 134.686 24.7064C135.132 25.1931 135.841 25.6542 136.812 26.0897C137.81 26.4995 138.913 26.7044 140.12 26.7044C141.643 26.7044 142.798 26.4611 143.586 25.9744C144.399 25.4877 144.819 24.8601 144.846 24.0916C144.872 23.3232 144.491 22.6571 143.704 22.0936C142.942 21.5301 141.538 21.069 139.49 20.7103C136.839 20.198 134.909 19.4296 133.702 18.4049C132.52 17.3803 131.93 16.1251 131.93 14.6394C131.93 13.333 132.323 12.2571 133.111 11.4118C133.898 10.5409 134.909 9.90049 136.143 9.49064C137.377 9.05517 138.663 8.83744 140.002 8.83744C141.735 8.83744 143.271 9.1064 144.609 9.64433C145.948 10.1823 147.012 10.9251 147.799 11.8729C148.167 12.2828 148.337 12.7182 148.311 13.1793C148.285 13.6148 148.062 13.9862 147.642 14.2936C147.222 14.5754 146.723 14.665 146.145 14.5626C145.568 14.4601 145.082 14.2296 144.688 13.8709C144.032 13.2562 143.323 12.8335 142.562 12.603C141.8 12.3724 140.921 12.2571 139.923 12.2571C138.768 12.2571 137.784 12.4493 136.97 12.8335C136.182 13.2177 135.789 13.7813 135.789 14.5241C135.789 14.9852 135.907 15.4079 136.143 15.7921C136.406 16.1507 136.904 16.4837 137.639 16.7911C138.374 17.0729 139.451 17.3547 140.868 17.6365C142.837 18.0207 144.386 18.5074 145.515 19.0966C146.67 19.6857 147.497 20.3773 147.996 21.1714C148.495 21.9399 148.744 22.8365 148.744 23.8611C148.744 25.0394 148.416 26.1025 147.76 27.0502C147.13 27.998 146.185 28.7537 144.924 29.3172C143.691 29.8808 142.142 30.1626 140.278 30.1626Z" fill="#FFFBF5"/>
</svg>
