<svg width="127" height="220" viewBox="0 0 127 220" fill="none" xmlns="http://www.w3.org/2000/svg">
<path d="M15.5334 212.179C15.0403 212.179 14.6256 212.022 14.2894 211.709C13.9756 211.373 13.8187 210.959 13.8187 210.467V202.209C13.8187 200.934 13.5833 199.893 13.1126 199.088C12.6419 198.282 12.0031 197.689 11.1961 197.309C10.4116 196.906 9.50384 196.704 8.47276 196.704C7.53134 196.704 6.67958 196.895 5.91748 197.275C5.15538 197.655 4.55019 198.17 4.10189 198.819C3.6536 199.446 3.42945 200.173 3.42945 201.001H1.31126C1.31126 199.591 1.64748 198.338 2.31992 197.241C3.01478 196.122 3.9562 195.239 5.14418 194.59C6.33216 193.941 7.66583 193.616 9.1452 193.616C10.6918 193.616 12.0703 193.952 13.2807 194.623C14.5135 195.272 15.4774 196.234 16.1722 197.51C16.8895 198.785 17.2481 200.352 17.2481 202.209V210.467C17.2481 210.959 17.08 211.373 16.7438 211.709C16.43 212.022 16.0265 212.179 15.5334 212.179ZM1.71473 212.179C1.2216 212.179 0.80693 212.022 0.470709 211.709C0.156903 211.373 0 210.959 0 210.467V195.496C0 194.981 0.156903 194.567 0.470709 194.254C0.80693 193.941 1.2216 193.784 1.71473 193.784C2.23026 193.784 2.64494 193.941 2.95874 194.254C3.27255 194.567 3.42945 194.981 3.42945 195.496V210.467C3.42945 210.959 3.27255 211.373 2.95874 211.709C2.64494 212.022 2.23026 212.179 1.71473 212.179Z" fill="#0D347A"/>
<path d="M31.559 212.28C29.6986 212.28 28.0399 211.888 26.583 211.105C25.1484 210.299 24.0165 209.202 23.1871 207.815C22.3802 206.405 21.9767 204.794 21.9767 202.981C21.9767 201.146 22.3578 199.535 23.1199 198.148C23.9044 196.738 24.9803 195.641 26.3476 194.858C27.7149 194.052 29.2839 193.65 31.0547 193.65C32.8031 193.65 34.3048 194.041 35.5601 194.825C36.8153 195.585 37.7679 196.648 38.4179 198.013C39.0904 199.356 39.4266 200.911 39.4266 202.679C39.4266 203.104 39.2809 203.463 38.9895 203.753C38.6981 204.022 38.3283 204.156 37.88 204.156H24.3303V201.471H37.7791L36.4006 202.411C36.3782 201.292 36.1541 200.296 35.7282 199.423C35.3023 198.528 34.6971 197.823 33.9126 197.309C33.1281 196.794 32.1754 196.536 31.0547 196.536C29.7771 196.536 28.6787 196.816 27.7597 197.376C26.8632 197.935 26.1795 198.707 25.7088 199.692C25.2381 200.654 25.0027 201.751 25.0027 202.981C25.0027 204.212 25.2829 205.309 25.8433 206.271C26.4037 207.233 27.177 207.994 28.1632 208.554C29.1495 209.113 30.2814 209.393 31.559 209.393C32.2539 209.393 32.96 209.27 33.6772 209.023C34.4169 208.755 35.0109 208.453 35.4592 208.117C35.7954 207.871 36.1541 207.748 36.5351 207.748C36.9386 207.726 37.286 207.837 37.5774 208.084C37.9584 208.419 38.1602 208.789 38.1826 209.191C38.205 209.594 38.0257 209.941 37.6446 210.232C36.8825 210.836 35.9299 211.328 34.7868 211.709C33.666 212.089 32.5901 212.28 31.559 212.28Z" fill="#0D347A"/>
<path d="M45.5154 220C45.0222 220 44.6076 219.832 44.2713 219.496C43.9575 219.183 43.8006 218.78 43.8006 218.288V202.981C43.823 201.214 44.2377 199.625 45.0446 198.215C45.8516 196.805 46.9499 195.697 48.3396 194.892C49.7293 194.064 51.2983 193.65 53.0467 193.65C54.8175 193.65 56.3977 194.064 57.7874 194.892C59.1771 195.697 60.2754 196.805 61.0824 198.215C61.9117 199.625 62.3264 201.214 62.3264 202.981C62.3264 204.749 61.9453 206.338 61.1832 207.748C60.4436 209.135 59.4237 210.243 58.1236 211.071C56.8236 211.877 55.3554 212.28 53.7191 212.28C52.3967 212.28 51.1751 212.011 50.0543 211.474C48.956 210.914 48.0146 210.165 47.2301 209.225V218.288C47.2301 218.78 47.0732 219.183 46.7594 219.496C46.4456 219.832 46.0309 220 45.5154 220ZM53.0467 209.258C54.1898 209.258 55.2097 208.99 56.1063 208.453C57.0029 207.893 57.709 207.144 58.2245 206.204C58.7624 205.242 59.0314 204.167 59.0314 202.981C59.0314 201.773 58.7624 200.699 58.2245 199.759C57.709 198.797 57.0029 198.047 56.1063 197.51C55.2097 196.95 54.1898 196.671 53.0467 196.671C51.926 196.671 50.9061 196.95 49.9871 197.51C49.0905 198.047 48.3844 198.797 47.8689 199.759C47.3534 200.699 47.0956 201.773 47.0956 202.981C47.0956 204.167 47.3534 205.242 47.8689 206.204C48.3844 207.144 49.0905 207.893 49.9871 208.453C50.9061 208.99 51.926 209.258 53.0467 209.258Z" fill="#0D347A"/>
<path d="M69.1559 205.465C68.6627 205.465 68.2481 205.309 67.9118 204.995C67.598 204.66 67.4411 204.246 67.4411 203.753V187.641C67.4411 187.126 67.598 186.712 67.9118 186.399C68.2481 186.086 68.6627 185.929 69.1559 185.929C69.6714 185.929 70.0861 186.086 70.3999 186.399C70.7137 186.712 70.8706 187.126 70.8706 187.641V203.753C70.8706 204.246 70.7137 204.66 70.3999 204.995C70.0861 205.309 69.6714 205.465 69.1559 205.465ZM82.9745 212.179C82.4814 212.179 82.0667 212.022 81.7305 211.709C81.4167 211.373 81.2598 210.959 81.2598 210.467V202.209C81.2598 200.934 81.0245 199.893 80.5537 199.088C80.083 198.282 79.4442 197.689 78.6373 197.309C77.8528 196.906 76.945 196.704 75.9139 196.704C74.9725 196.704 74.1207 196.895 73.3586 197.275C72.5965 197.655 71.9913 198.17 71.543 198.819C71.0947 199.446 70.8706 200.173 70.8706 201.001H68.7524C68.7524 199.591 69.0886 198.338 69.7611 197.241C70.4559 196.122 71.3973 195.239 72.5853 194.59C73.7733 193.941 75.107 193.616 76.5863 193.616C78.133 193.616 79.5115 193.952 80.7219 194.623C81.9547 195.272 82.9185 196.234 83.6134 197.51C84.3306 198.785 84.6893 200.352 84.6893 202.209V210.467C84.6893 210.959 84.5212 211.373 84.1849 211.709C83.8711 212.022 83.4677 212.179 82.9745 212.179ZM69.1559 212.179C68.6627 212.179 68.2481 212.022 67.9118 211.709C67.598 211.373 67.4411 210.959 67.4411 210.467V195.496C67.4411 194.981 67.598 194.567 67.9118 194.254C68.2481 193.941 68.6627 193.784 69.1559 193.784C69.6714 193.784 70.0861 193.941 70.3999 194.254C70.7137 194.567 70.8706 194.981 70.8706 195.496V210.467C70.8706 210.959 70.7137 211.373 70.3999 211.709C70.0861 212.022 69.6714 212.179 69.1559 212.179Z" fill="#0D347A"/>
<path d="M98.7304 212.28C96.9148 212.28 95.3122 211.888 93.9225 211.105C92.5327 210.299 91.4344 209.202 90.6275 207.815C89.843 206.405 89.4507 204.794 89.4507 202.981C89.4507 201.146 89.843 199.535 90.6275 198.148C91.4344 196.738 92.5327 195.641 93.9225 194.858C95.3122 194.052 96.9148 193.65 98.7304 193.65C100.524 193.65 102.115 194.052 103.505 194.858C104.894 195.641 105.982 196.738 106.766 198.148C107.573 199.535 107.976 201.146 107.976 202.981C107.976 204.794 107.584 206.405 106.8 207.815C106.015 209.202 104.928 210.299 103.538 211.105C102.149 211.888 100.546 212.28 98.7304 212.28ZM98.7304 209.258C99.896 209.258 100.927 208.99 101.824 208.453C102.72 207.916 103.415 207.177 103.908 206.237C104.424 205.298 104.682 204.212 104.682 202.981C104.682 201.751 104.424 200.665 103.908 199.725C103.415 198.763 102.72 198.013 101.824 197.476C100.927 196.939 99.896 196.671 98.7304 196.671C97.5648 196.671 96.5338 196.939 95.6372 197.476C94.7406 198.013 94.0345 198.763 93.519 199.725C93.0034 200.665 92.7457 201.751 92.7457 202.981C92.7457 204.212 93.0034 205.298 93.519 206.237C94.0345 207.177 94.7406 207.916 95.6372 208.453C96.5338 208.99 97.5648 209.258 98.7304 209.258Z" fill="#0D347A"/>
<path d="M119.771 212.28C118.202 212.28 116.745 212.045 115.4 211.575C114.078 211.082 113.047 210.467 112.307 209.728C111.971 209.37 111.825 208.968 111.87 208.52C111.937 208.05 112.161 207.67 112.543 207.379C112.991 207.021 113.428 206.875 113.854 206.942C114.302 206.987 114.683 207.177 114.997 207.513C115.378 207.938 115.983 208.341 116.813 208.721C117.664 209.079 118.606 209.258 119.637 209.258C120.937 209.258 121.923 209.046 122.596 208.621C123.29 208.195 123.649 207.647 123.671 206.976C123.694 206.305 123.369 205.723 122.696 205.23C122.046 204.738 120.847 204.335 119.099 204.022C116.835 203.574 115.187 202.903 114.156 202.008C113.148 201.113 112.643 200.016 112.643 198.718C112.643 197.577 112.98 196.637 113.652 195.899C114.324 195.138 115.187 194.578 116.241 194.22C117.294 193.84 118.393 193.65 119.536 193.65C121.015 193.65 122.327 193.885 123.47 194.355C124.613 194.825 125.521 195.473 126.193 196.301C126.507 196.66 126.653 197.04 126.63 197.443C126.608 197.823 126.417 198.148 126.059 198.416C125.7 198.662 125.274 198.741 124.781 198.651C124.288 198.562 123.873 198.36 123.537 198.047C122.977 197.51 122.371 197.141 121.721 196.939C121.071 196.738 120.32 196.637 119.469 196.637C118.482 196.637 117.642 196.805 116.947 197.141C116.275 197.476 115.938 197.969 115.938 198.618C115.938 199.02 116.039 199.39 116.241 199.725C116.465 200.039 116.891 200.33 117.519 200.598C118.146 200.844 119.065 201.09 120.276 201.337C121.957 201.672 123.279 202.097 124.243 202.612C125.229 203.127 125.935 203.731 126.361 204.425C126.787 205.096 127 205.879 127 206.774C127 207.804 126.72 208.733 126.159 209.561C125.621 210.389 124.815 211.049 123.739 211.541C122.685 212.033 121.363 212.28 119.771 212.28Z" fill="#0D347A"/>
<path d="M1.3812 84.1482C1.3812 75.6361 1.28558 67.1221 1.40465 58.61C1.56161 47.4568 4.81442 37.2181 10.8853 27.8418C14.0389 22.9718 17.7914 18.6419 22.1538 14.8396C25.9658 11.5161 30.1712 8.76692 34.7086 6.52007C40.6513 3.57647 46.908 1.66808 53.475 0.735495C57.7074 0.135973 61.9561 -0.137682 66.2192 0.0675594C74.2205 0.452837 81.9024 2.237 89.2487 5.45605C96.7178 8.72911 103.272 13.3146 108.753 19.3153C115.755 26.9812 120.314 35.9848 122.796 46.0453C123.716 49.7774 124.223 53.5654 124.258 57.4092C124.312 63.5178 124.357 69.6283 124.369 75.7369C124.387 84.8737 124.332 94.0124 124.395 103.149C124.425 107.65 124.303 112.135 123.678 116.591C122.966 121.679 121.407 126.523 119.248 131.19C116.556 137.005 113.045 142.264 108.61 146.885C102.35 153.412 94.9281 158.206 86.4415 161.341C81.2782 163.247 75.9416 164.367 70.4445 164.799C65.586 165.181 60.7257 165.307 55.8762 164.907C42.2552 163.786 30.2055 158.867 19.9491 149.764C11.2984 142.084 5.5505 132.634 2.77758 121.416C1.85027 117.662 1.42991 113.816 1.40285 109.955C1.34151 101.352 1.383 92.7503 1.383 84.1464H1.37579L1.3812 84.1482ZM43.942 97.5555C44.5139 98.0146 45.0642 98.065 45.6235 98.0614C49.2335 98.0326 52.6054 97.1234 55.7211 95.3014C58.3623 93.7567 60.5615 91.6773 62.7012 89.5259C64.4566 87.7615 66.1759 85.9558 68.3138 84.6253C69.4793 83.8997 70.7349 83.419 72.106 83.3524C72.7772 83.32 73.5475 83.3092 73.9535 84.0096C74.3522 84.6991 73.9156 85.2698 73.5205 85.8045C71.738 88.2134 69.9537 90.6205 68.072 92.9556C63.0674 99.1704 57.0219 103.979 49.4752 106.79C45.3781 108.314 41.1691 109.479 36.9493 110.597C31.6181 112.009 26.7813 114.34 22.6842 118.056C18.9442 121.448 15.7131 125.328 12.3682 129.094C12.1481 129.343 11.7981 129.631 12.0489 130.03C12.2907 130.414 12.6912 130.263 13.0376 130.207C16.101 129.712 19.1842 129.521 22.262 129.937C27.5318 130.648 32.5076 132.31 37.2001 134.807C39.7745 136.177 42.1993 137.774 44.4905 139.576C44.8134 139.83 45.1508 140.275 45.5495 139.576C47.4619 136.224 50.4964 134.308 54.1064 133.34C59.9481 131.771 65.8079 132.132 71.6117 133.638C74.5236 134.395 77.1576 135.698 79.3333 137.844C79.8836 138.386 79.9972 139.574 80.8704 139.472C81.5921 139.387 82.2452 138.676 82.9145 138.222C87.0982 135.381 91.5255 133.041 96.4092 131.62C101.722 130.075 107.113 129.66 112.589 130.448C113.229 130.54 113.5 130.227 113.75 129.73C116.756 123.758 118.403 117.392 118.477 110.756C118.636 96.4897 118.531 82.2218 118.526 67.9539C118.526 63.9085 118.636 59.8577 118.439 55.8213C118.212 51.1259 117.247 46.5332 115.731 42.0719C114.263 37.7474 112.188 33.7182 109.769 29.8528C109.211 28.9634 109.164 28.9256 108.634 29.7988C107.357 31.8944 106.079 33.99 104.842 36.1091C103.315 38.7268 101.712 41.2887 99.6927 43.5662C96.5806 47.0787 92.7397 49.7108 88.9817 52.4438C85.4908 54.9823 81.8825 57.3858 78.9905 60.648C77.6591 62.1513 76.4179 63.7339 75.0828 65.2336C73.9968 66.4524 72.723 66.6829 71.4511 66.0095C70.228 65.3632 69.6651 64.0561 69.9321 62.5726C70.2713 60.6912 71.0687 58.9953 72.0014 57.3498C74.0437 53.7436 76.8238 50.719 79.622 47.7088C80.5042 46.7618 81.3124 45.759 81.7562 44.5204C82.633 42.0755 81.4008 39.8196 78.8697 39.2165C77.1215 38.7988 75.4094 39.0887 73.7153 39.5045C69.5695 40.5182 65.7213 42.3203 61.8118 43.9712C59.6685 44.8768 57.9798 46.2883 56.6268 48.1355C55.6706 49.4408 54.7415 50.764 53.8123 52.0909C52.2987 54.2531 50.8139 56.4406 48.8564 58.2409C47.4474 59.5372 45.9211 60.6156 43.8771 60.6354C42.8848 60.6462 41.9936 60.4356 41.4758 59.5318C40.9418 58.601 41.1691 57.69 41.7627 56.8421C44.3913 53.0865 46.7943 49.1869 49.1758 45.2729C51.3082 41.7676 54.027 38.8654 57.5703 36.6762C61.4942 34.2511 65.3352 31.6784 69.0986 29.0102C72.9955 26.2485 77.2099 24.5273 81.9745 23.9584C87.4681 23.3031 92.6495 21.7674 96.7755 17.7633C97.2824 17.2718 97.5495 17.0684 96.8152 16.5121C88.4008 10.146 78.8823 6.73431 68.4184 5.7135C63.8198 5.26521 59.2409 5.36063 54.6837 5.97996C47.7126 6.92875 41.0988 9.01357 34.9612 12.5135C26.0272 17.6085 18.9497 24.5579 13.9144 33.5273C9.276 41.7874 7.04431 50.6668 7.084 60.1403C7.13091 71.4394 7.10926 82.7403 7.12008 94.0394C7.12369 97.8166 7.13452 101.592 7.16338 105.369C7.16519 105.695 7.06235 106.181 7.48451 106.3C7.84173 106.401 8.0059 105.976 8.22059 105.738C11.0079 102.665 13.5066 99.3739 15.6373 95.8164C18.3326 91.3154 21.9156 87.6733 26.1787 84.6523C28.921 82.7097 31.6596 80.7599 34.088 78.4212C35.2769 77.2762 36.4423 76.1096 37.6457 74.9789C38.3926 74.2768 39.2153 73.6809 40.2598 73.4774C41.9467 73.1498 43.224 74.158 43.3629 75.8539C43.5054 77.5697 42.8253 79.0099 41.9683 80.3998C40.2779 83.1454 38.1887 85.5741 35.9444 87.8767C35.3599 88.4763 34.7681 89.0776 34.4632 89.8877C33.9815 91.1642 34.521 92.1382 35.865 92.2822C36.6949 92.3705 37.5374 92.3759 38.3745 92.2066C40.9075 91.6899 43.1807 90.5809 45.3276 89.1874C48.8997 86.8685 51.8855 83.8655 54.9417 80.9435C56.9786 78.9937 59.0208 77.0493 61.2092 75.267C62.2285 74.437 63.3633 74.2804 64.5739 74.8115C65.9811 75.429 66.2715 76.9629 65.1764 78.0161C64.5071 78.6607 63.8125 79.28 63.145 79.9263C59.6306 83.3254 56.1414 86.7497 52.6018 90.1218C51.1531 91.5027 49.4897 92.6351 47.8028 93.7837C47.9183 93.8323 47.976 93.8828 48.0175 93.872C48.2773 93.8053 48.5389 93.7351 48.7933 93.6469C50.693 92.9844 52.2825 91.8069 53.8304 90.5773C56.4896 88.4637 58.8115 85.9828 61.2904 83.6729C63.4842 81.6313 65.4543 79.352 67.8357 77.5048C69.113 76.5146 70.5022 76.0393 72.1187 76.4948C73.396 76.8531 73.9192 77.8811 73.4501 79.1378C73.0965 80.0848 72.4091 80.7347 71.5522 81.219C70.2767 81.9391 68.92 82.5081 67.695 83.3308C65.0808 85.0844 62.9177 87.3348 60.7455 89.5745C57.7579 92.6567 54.3662 95.0872 50.2023 96.3402C48.1979 96.9434 46.1485 97.3106 43.9366 97.5537L43.942 97.5555Z" fill="#0D347A"/>
<path d="M67.4569 43.5134C65.4092 46.9359 63.4987 50.1711 61.543 53.3794C60.3758 55.295 59.2337 57.2286 57.8969 59.0343C56.8523 60.444 55.6869 61.7133 53.9333 62.2768C53.2224 62.5054 52.5062 62.5234 51.8044 62.3722C50.3774 62.0644 49.5944 60.4854 50.4874 59.3962C53.2784 55.9863 55.3621 52.0669 58.2812 48.7543C59.4268 47.4544 60.8087 46.4696 62.3891 45.7639C64.011 45.0401 65.6347 44.3218 67.4569 43.5116V43.5134Z" fill="#0D347A"/>
<path d="M76.2447 40.9389C76.2555 41.2504 76.0751 41.3872 75.9434 41.5348C73.5259 44.2444 71.8192 47.3752 70.3218 50.6591C69.1094 53.3164 67.5001 55.7343 65.0971 57.5131C64.3718 58.0496 63.5636 58.4529 62.6236 58.4529C61.4528 58.4529 60.9981 57.8353 61.4654 56.7911C61.8803 55.8657 62.3602 54.9656 62.8744 54.0924C64.6154 51.129 66.3293 48.1512 67.9007 45.0942C69.2086 42.5502 71.5847 41.6501 74.1555 41.0667C74.823 40.9155 75.5032 40.7769 76.2411 40.9407L76.2447 40.9389Z" fill="#0D347A"/>
</svg>
