<svg width="251" height="67" viewBox="0 0 251 67" fill="none" xmlns="http://www.w3.org/2000/svg">
<path d="M30.6999 51.6197C29.7253 51.6197 28.9057 51.3117 28.2412 50.6956C27.621 50.0355 27.3109 49.2213 27.3109 48.2532V32.0148C27.3109 29.5064 26.8458 27.4601 25.9155 25.8759C24.9852 24.2916 23.7226 23.1255 22.1278 22.3773C20.5773 21.5852 18.7832 21.1892 16.7454 21.1892C14.8848 21.1892 13.2014 21.5632 11.6952 22.3113C10.189 23.0594 8.99289 24.0716 8.10689 25.3478C7.22089 26.58 6.77789 28.0102 6.77789 29.6384H2.59155C2.59155 26.866 3.25605 24.4016 4.58504 22.2453C5.95834 20.045 7.81894 18.3067 10.1668 17.0305C12.5147 15.7543 15.1506 15.1163 18.0744 15.1163C21.1311 15.1163 23.8555 15.7764 26.2477 17.0965C28.6842 18.3727 30.5891 20.265 31.9624 22.7734C33.38 25.2818 34.0888 28.3622 34.0888 32.0148V48.2532C34.0888 49.2213 33.7566 50.0355 33.0921 50.6956C32.4719 51.3117 31.6745 51.6197 30.6999 51.6197ZM3.38895 51.6197C2.41435 51.6197 1.5948 51.3117 0.930299 50.6956C0.3101 50.0355 0 49.2213 0 48.2532V18.8128C0 17.8007 0.3101 16.9865 0.930299 16.3704C1.5948 15.7543 2.41435 15.4463 3.38895 15.4463C4.40784 15.4463 5.22739 15.7543 5.84759 16.3704C6.46779 16.9865 6.77789 17.8007 6.77789 18.8128V48.2532C6.77789 49.2213 6.46779 50.0355 5.84759 50.6956C5.22739 51.3117 4.40784 51.6197 3.38895 51.6197Z" fill="#0D347A"/>
<path d="M62.3726 51.8177C58.6957 51.8177 55.4175 51.0476 52.538 49.5074C49.7028 47.9231 47.4657 45.7668 45.8266 43.0384C44.2318 40.266 43.4344 37.0975 43.4344 33.533C43.4344 29.9245 44.1875 26.756 45.6937 24.0276C47.2442 21.2552 49.3706 19.0988 52.0728 17.5586C54.7751 15.9744 57.8761 15.1823 61.3758 15.1823C64.8312 15.1823 67.7993 15.9524 70.2801 17.4926C72.7609 18.9888 74.6437 21.0791 75.9284 23.7635C77.2574 26.4039 77.9219 29.4624 77.9219 32.9389C77.9219 33.775 77.6339 34.4791 77.058 35.0512C76.4821 35.5793 75.7512 35.8433 74.8652 35.8433H48.0859V30.5626H74.6658L71.9414 32.4108C71.8971 30.2105 71.4541 28.2522 70.6124 26.536C69.7707 24.7757 68.5746 23.3895 67.0241 22.3773C65.4736 21.3652 63.5908 20.8591 61.3758 20.8591C58.8507 20.8591 56.68 21.4092 54.8637 22.5094C53.0917 23.6095 51.7406 25.1277 50.8103 27.064C49.88 28.9563 49.4149 31.1126 49.4149 33.533C49.4149 35.9534 49.9686 38.1097 51.0761 40.002C52.1836 41.8943 53.7119 43.3905 55.6611 44.4906C57.6103 45.5908 59.8475 46.1409 62.3726 46.1409C63.7459 46.1409 65.1413 45.8988 66.5589 45.4148C68.0208 44.8867 69.1948 44.2926 70.0808 43.6325C70.7453 43.1484 71.4541 42.9064 72.2072 42.9064C73.0046 42.8624 73.6912 43.0824 74.2671 43.5665C75.0202 44.2266 75.4189 44.9527 75.4632 45.7448C75.5075 46.5369 75.1531 47.219 74.4 47.7911C72.8938 48.9793 71.0111 49.9475 68.7518 50.6956C66.5368 51.4437 64.4104 51.8177 62.3726 51.8177Z" fill="#0D347A"/>
<path d="M89.9555 67C88.9809 67 88.1614 66.6699 87.4969 66.0098C86.8767 65.3938 86.5666 64.6016 86.5666 63.6335V33.533C86.6109 30.0565 87.4304 26.932 89.0252 24.1596C90.62 21.3872 92.7907 19.2089 95.5373 17.6246C98.2839 15.9964 101.385 15.1823 104.84 15.1823C108.34 15.1823 111.463 15.9964 114.21 17.6246C116.956 19.2089 119.127 21.3872 120.722 24.1596C122.361 26.932 123.18 30.0565 123.18 33.533C123.18 37.0095 122.427 40.134 120.921 42.9064C119.459 45.6348 117.444 47.8131 114.874 49.4414C112.305 51.0256 109.403 51.8177 106.169 51.8177C103.556 51.8177 101.141 51.2897 98.9263 50.2335C96.7556 49.1333 94.895 47.6591 93.3445 45.8108V63.6335C93.3445 64.6016 93.0344 65.3938 92.4142 66.0098C91.794 66.6699 90.9744 67 89.9555 67ZM104.84 45.8768C107.1 45.8768 109.115 45.3488 110.887 44.2926C112.659 43.1924 114.055 41.7182 115.074 39.8699C116.137 37.9777 116.668 35.8654 116.668 33.533C116.668 31.1567 116.137 29.0443 115.074 27.1961C114.055 25.3038 112.659 23.8296 110.887 22.7734C109.115 21.6732 107.1 21.1232 104.84 21.1232C102.625 21.1232 100.61 21.6732 98.7934 22.7734C97.0214 23.8296 95.6259 25.3038 94.607 27.1961C93.5881 29.0443 93.0787 31.1567 93.0787 33.533C93.0787 35.8654 93.5881 37.9777 94.607 39.8699C95.6259 41.7182 97.0214 43.1924 98.7934 44.2926C100.61 45.3488 102.625 45.8768 104.84 45.8768Z" fill="#0D347A"/>
<path d="M136.678 38.4177C135.704 38.4177 134.884 38.1097 134.219 37.4936C133.599 36.8335 133.289 36.0194 133.289 35.0512V3.3665C133.289 2.35435 133.599 1.54023 134.219 0.924138C134.884 0.308046 135.704 0 136.678 0C137.697 0 138.517 0.308046 139.137 0.924138C139.757 1.54023 140.067 2.35435 140.067 3.3665V35.0512C140.067 36.0194 139.757 36.8335 139.137 37.4936C138.517 38.1097 137.697 38.4177 136.678 38.4177ZM163.989 51.6197C163.014 51.6197 162.195 51.3117 161.53 50.6956C160.91 50.0355 160.6 49.2213 160.6 48.2532V32.0148C160.6 29.5064 160.135 27.4601 159.205 25.8759C158.274 24.2916 157.012 23.1255 155.417 22.3773C153.867 21.5852 152.072 21.1892 150.035 21.1892C148.174 21.1892 146.491 21.5632 144.984 22.3113C143.478 23.0594 142.282 24.0716 141.396 25.3478C140.51 26.58 140.067 28.0102 140.067 29.6384H135.881C135.881 26.866 136.545 24.4016 137.874 22.2453C139.248 20.045 141.108 18.3067 143.456 17.0305C145.804 15.7543 148.44 15.1163 151.364 15.1163C154.42 15.1163 157.145 15.7764 159.537 17.0965C161.973 18.3727 163.878 20.265 165.252 22.7734C166.669 25.2818 167.378 28.3622 167.378 32.0148V48.2532C167.378 49.2213 167.046 50.0355 166.381 50.6956C165.761 51.3117 164.964 51.6197 163.989 51.6197ZM136.678 51.6197C135.704 51.6197 134.884 51.3117 134.219 50.6956C133.599 50.0355 133.289 49.2213 133.289 48.2532V18.8128C133.289 17.8007 133.599 16.9865 134.219 16.3704C134.884 15.7543 135.704 15.4463 136.678 15.4463C137.697 15.4463 138.517 15.7543 139.137 16.3704C139.757 16.9865 140.067 17.8007 140.067 18.8128V48.2532C140.067 49.2213 139.757 50.0355 139.137 50.6956C138.517 51.3117 137.697 51.6197 136.678 51.6197Z" fill="#0D347A"/>
<path d="M195.129 51.8177C191.54 51.8177 188.373 51.0476 185.626 49.5074C182.88 47.9231 180.709 45.7668 179.114 43.0384C177.564 40.266 176.788 37.0975 176.788 33.533C176.788 29.9245 177.564 26.756 179.114 24.0276C180.709 21.2552 182.88 19.0988 185.626 17.5586C188.373 15.9744 191.54 15.1823 195.129 15.1823C198.673 15.1823 201.818 15.9744 204.564 17.5586C207.311 19.0988 209.46 21.2552 211.01 24.0276C212.605 26.756 213.402 29.9245 213.402 33.533C213.402 37.0975 212.627 40.266 211.077 43.0384C209.526 45.7668 207.378 47.9231 204.631 49.5074C201.884 51.0476 198.717 51.8177 195.129 51.8177ZM195.129 45.8768C197.432 45.8768 199.47 45.3488 201.242 44.2926C203.014 43.2365 204.387 41.7842 205.362 39.936C206.381 38.0877 206.89 35.9534 206.89 33.533C206.89 31.1126 206.381 28.9783 205.362 27.13C204.387 25.2378 203.014 23.7635 201.242 22.7074C199.47 21.6512 197.432 21.1232 195.129 21.1232C192.825 21.1232 190.787 21.6512 189.015 22.7074C187.243 23.7635 185.848 25.2378 184.829 27.13C183.81 28.9783 183.301 31.1126 183.301 33.533C183.301 35.9534 183.81 38.0877 184.829 39.936C185.848 41.7842 187.243 43.2365 189.015 44.2926C190.787 45.3488 192.825 45.8768 195.129 45.8768Z" fill="#0D347A"/>
<path d="M236.713 51.8177C233.612 51.8177 230.733 51.3557 228.075 50.4315C225.461 49.4634 223.423 48.2532 221.961 46.801C221.297 46.0969 221.009 45.3048 221.098 44.4246C221.23 43.5005 221.673 42.7524 222.427 42.1803C223.313 41.4762 224.176 41.1901 225.018 41.3222C225.904 41.4102 226.657 41.7842 227.277 42.4443C228.03 43.2805 229.227 44.0726 230.866 44.8207C232.549 45.5248 234.41 45.8768 236.447 45.8768C239.017 45.8768 240.966 45.4588 242.295 44.6227C243.668 43.7865 244.377 42.7084 244.421 41.3882C244.466 40.068 243.823 38.9238 242.494 37.9557C241.21 36.9875 238.84 36.1954 235.384 35.5793C230.91 34.6992 227.654 33.379 225.616 31.6187C223.623 29.8585 222.626 27.7021 222.626 25.1498C222.626 22.9054 223.29 21.0571 224.619 19.6049C225.948 18.1087 227.654 17.0085 229.736 16.3044C231.818 15.5563 233.989 15.1823 236.248 15.1823C239.172 15.1823 241.763 15.6443 244.023 16.5685C246.282 17.4926 248.076 18.7688 249.405 20.397C250.025 21.1011 250.313 21.8493 250.269 22.6414C250.225 23.3895 249.848 24.0276 249.139 24.5557C248.431 25.0397 247.589 25.1938 246.614 25.0177C245.64 24.8417 244.82 24.4456 244.156 23.8296C243.048 22.7734 241.852 22.0473 240.567 21.6512C239.283 21.2552 237.799 21.0571 236.115 21.0571C234.166 21.0571 232.505 21.3872 231.131 22.0473C229.802 22.7074 229.138 23.6755 229.138 24.9517C229.138 25.7438 229.337 26.4699 229.736 27.13C230.179 27.7461 231.021 28.3182 232.261 28.8463C233.502 29.3304 235.318 29.8144 237.71 30.2985C241.033 30.9586 243.646 31.7947 245.551 32.8069C247.5 33.819 248.896 35.0072 249.737 36.3714C250.579 37.6916 251 39.2319 251 40.9921C251 43.0164 250.446 44.8427 249.339 46.4709C248.276 48.0992 246.681 49.3974 244.554 50.3655C242.472 51.3337 239.859 51.8177 236.713 51.8177Z" fill="#0D347A"/>
</svg>
